<mxfile host="Electron" agent="Mozilla/5.0 (Windows NT 10.0; Win64; x64) AppleWebKit/537.36 (KHTML, like Gecko) draw.io/26.1.1 Chrome/132.0.6834.210 Electron/34.3.3 Safari/537.36" version="26.1.1">
  <diagram id="R2lEEEUBdFMjLlhIrx00" name="Page-1">
    <mxGraphModel dx="1912" dy="1719" grid="1" gridSize="10" guides="1" tooltips="1" connect="1" arrows="1" fold="1" page="1" pageScale="1" pageWidth="850" pageHeight="1100" math="0" shadow="0" extFonts="Permanent Marker^https://fonts.googleapis.com/css?family=Permanent+Marker">
      <root>
        <mxCell id="0" />
        <mxCell id="1" parent="0" />
        <mxCell id="1rP7fkY4lVl0kBXB7WDJ-3" value="Бронирует и/или покупает билет" style="html=1;whiteSpace=wrap;aspect=fixed;shape=isoRectangle;" parent="1" vertex="1">
          <mxGeometry x="390" y="115" width="150" height="90" as="geometry" />
        </mxCell>
        <mxCell id="1rP7fkY4lVl0kBXB7WDJ-4" value="Регистрирует новых пеользователей" style="html=1;whiteSpace=wrap;aspect=fixed;shape=isoRectangle;" parent="1" vertex="1">
          <mxGeometry x="390" y="250" width="150" height="90" as="geometry" />
        </mxCell>
        <mxCell id="1rP7fkY4lVl0kBXB7WDJ-10" value="Роль" style="whiteSpace=wrap;html=1;align=center;" parent="1" vertex="1">
          <mxGeometry x="150" y="390" width="100" height="40" as="geometry" />
        </mxCell>
        <mxCell id="1rP7fkY4lVl0kBXB7WDJ-11" value="Клиент" style="whiteSpace=wrap;html=1;align=center;" parent="1" vertex="1">
          <mxGeometry x="150" y="140" width="100" height="40" as="geometry" />
        </mxCell>
        <mxCell id="1rP7fkY4lVl0kBXB7WDJ-12" value="Наименование" style="ellipse;whiteSpace=wrap;html=1;align=center;" parent="1" vertex="1">
          <mxGeometry x="-50" y="300" width="100" height="40" as="geometry" />
        </mxCell>
        <mxCell id="1rP7fkY4lVl0kBXB7WDJ-13" value="Дата создания" style="ellipse;whiteSpace=wrap;html=1;align=center;" parent="1" vertex="1">
          <mxGeometry x="-50" y="390" width="100" height="40" as="geometry" />
        </mxCell>
        <mxCell id="1rP7fkY4lVl0kBXB7WDJ-14" value="Role_id" style="ellipse;whiteSpace=wrap;html=1;align=center;" parent="1" vertex="1">
          <mxGeometry x="-50" y="480" width="100" height="40" as="geometry" />
        </mxCell>
        <mxCell id="1rP7fkY4lVl0kBXB7WDJ-15" value="Актуализирует контент" style="html=1;whiteSpace=wrap;aspect=fixed;shape=isoRectangle;" parent="1" vertex="1">
          <mxGeometry x="390" y="380" width="150" height="90" as="geometry" />
        </mxCell>
        <mxCell id="1rP7fkY4lVl0kBXB7WDJ-16" value="Формирует отчеты о продажах" style="html=1;whiteSpace=wrap;aspect=fixed;shape=isoRectangle;" parent="1" vertex="1">
          <mxGeometry x="391" y="515" width="150" height="90" as="geometry" />
        </mxCell>
        <mxCell id="1rP7fkY4lVl0kBXB7WDJ-17" value="Контролирует работу театра" style="html=1;whiteSpace=wrap;aspect=fixed;shape=isoRectangle;" parent="1" vertex="1">
          <mxGeometry x="390" y="650" width="150" height="90" as="geometry" />
        </mxCell>
        <mxCell id="1rP7fkY4lVl0kBXB7WDJ-18" value="Билет" style="whiteSpace=wrap;html=1;align=center;" parent="1" vertex="1">
          <mxGeometry x="700" y="-30" width="100" height="40" as="geometry" />
        </mxCell>
        <mxCell id="1rP7fkY4lVl0kBXB7WDJ-19" value="Сообщение" style="whiteSpace=wrap;html=1;align=center;" parent="1" vertex="1">
          <mxGeometry x="690" y="250" width="100" height="40" as="geometry" />
        </mxCell>
        <mxCell id="1rP7fkY4lVl0kBXB7WDJ-20" value="Контент" style="whiteSpace=wrap;html=1;align=center;" parent="1" vertex="1">
          <mxGeometry x="690" y="430" width="100" height="40" as="geometry" />
        </mxCell>
        <mxCell id="1rP7fkY4lVl0kBXB7WDJ-21" value="Программа скидок" style="whiteSpace=wrap;html=1;align=center;" parent="1" vertex="1">
          <mxGeometry x="690" y="540" width="100" height="40" as="geometry" />
        </mxCell>
        <mxCell id="1rP7fkY4lVl0kBXB7WDJ-22" value="Отчет о продажах" style="whiteSpace=wrap;html=1;align=center;" parent="1" vertex="1">
          <mxGeometry x="690" y="740" width="100" height="40" as="geometry" />
        </mxCell>
        <mxCell id="1rP7fkY4lVl0kBXB7WDJ-23" value="client_id" style="ellipse;whiteSpace=wrap;html=1;align=center;" parent="1" vertex="1">
          <mxGeometry x="-130" y="140" width="100" height="40" as="geometry" />
        </mxCell>
        <mxCell id="1rP7fkY4lVl0kBXB7WDJ-25" value="Имя" style="ellipse;whiteSpace=wrap;html=1;align=center;" parent="1" vertex="1">
          <mxGeometry x="-130" y="70" width="100" height="40" as="geometry" />
        </mxCell>
        <mxCell id="1rP7fkY4lVl0kBXB7WDJ-26" value="Фамилия" style="ellipse;whiteSpace=wrap;html=1;align=center;" parent="1" vertex="1">
          <mxGeometry x="30" y="10" width="100" height="40" as="geometry" />
        </mxCell>
        <mxCell id="1rP7fkY4lVl0kBXB7WDJ-27" value="Телефон" style="ellipse;whiteSpace=wrap;html=1;align=center;" parent="1" vertex="1">
          <mxGeometry x="150" y="30" width="100" height="40" as="geometry" />
        </mxCell>
        <mxCell id="1rP7fkY4lVl0kBXB7WDJ-28" value="" style="fontSize=12;html=1;endArrow=ERmany;rounded=0;entryX=0.247;entryY=0.903;entryDx=0;entryDy=0;entryPerimeter=0;exitX=0.75;exitY=0;exitDx=0;exitDy=0;" parent="1" source="1rP7fkY4lVl0kBXB7WDJ-11" target="1rP7fkY4lVl0kBXB7WDJ-27" edge="1">
          <mxGeometry width="100" height="100" relative="1" as="geometry">
            <mxPoint x="270" y="220" as="sourcePoint" />
            <mxPoint x="370" y="120" as="targetPoint" />
          </mxGeometry>
        </mxCell>
        <mxCell id="1rP7fkY4lVl0kBXB7WDJ-30" value="" style="fontSize=12;html=1;endArrow=ERmany;rounded=0;entryX=0.617;entryY=0.964;entryDx=0;entryDy=0;entryPerimeter=0;exitX=0.57;exitY=-0.009;exitDx=0;exitDy=0;exitPerimeter=0;" parent="1" source="1rP7fkY4lVl0kBXB7WDJ-11" target="1rP7fkY4lVl0kBXB7WDJ-26" edge="1">
          <mxGeometry width="100" height="100" relative="1" as="geometry">
            <mxPoint x="235" y="150" as="sourcePoint" />
            <mxPoint x="285" y="86" as="targetPoint" />
          </mxGeometry>
        </mxCell>
        <mxCell id="1rP7fkY4lVl0kBXB7WDJ-31" value="" style="fontSize=12;html=1;endArrow=ERmany;rounded=0;entryX=0.938;entryY=0.732;entryDx=0;entryDy=0;entryPerimeter=0;exitX=0.009;exitY=0.029;exitDx=0;exitDy=0;exitPerimeter=0;" parent="1" source="1rP7fkY4lVl0kBXB7WDJ-11" target="1rP7fkY4lVl0kBXB7WDJ-25" edge="1">
          <mxGeometry width="100" height="100" relative="1" as="geometry">
            <mxPoint x="110" y="200" as="sourcePoint" />
            <mxPoint x="85" y="99" as="targetPoint" />
          </mxGeometry>
        </mxCell>
        <mxCell id="1rP7fkY4lVl0kBXB7WDJ-32" value="" style="fontSize=12;html=1;endArrow=ERmany;rounded=0;entryX=0.991;entryY=0.421;entryDx=0;entryDy=0;entryPerimeter=0;exitX=0.007;exitY=0.451;exitDx=0;exitDy=0;exitPerimeter=0;" parent="1" source="1rP7fkY4lVl0kBXB7WDJ-11" target="1rP7fkY4lVl0kBXB7WDJ-23" edge="1">
          <mxGeometry width="100" height="100" relative="1" as="geometry">
            <mxPoint x="195" y="150" as="sourcePoint" />
            <mxPoint x="114" y="109" as="targetPoint" />
          </mxGeometry>
        </mxCell>
        <mxCell id="1rP7fkY4lVl0kBXB7WDJ-35" style="edgeStyle=orthogonalEdgeStyle;rounded=0;orthogonalLoop=1;jettySize=auto;html=1;exitX=1;exitY=0.5;exitDx=0;exitDy=0;entryX=0.026;entryY=0.511;entryDx=0;entryDy=0;entryPerimeter=0;" parent="1" source="1rP7fkY4lVl0kBXB7WDJ-11" target="1rP7fkY4lVl0kBXB7WDJ-3" edge="1">
          <mxGeometry relative="1" as="geometry">
            <Array as="points">
              <mxPoint x="250" y="161" />
            </Array>
          </mxGeometry>
        </mxCell>
        <mxCell id="1rP7fkY4lVl0kBXB7WDJ-36" value="Email" style="ellipse;whiteSpace=wrap;html=1;align=center;" parent="1" vertex="1">
          <mxGeometry x="-90" width="100" height="40" as="geometry" />
        </mxCell>
        <mxCell id="1rP7fkY4lVl0kBXB7WDJ-37" value="" style="fontSize=12;html=1;endArrow=ERmany;rounded=0;entryX=0.781;entryY=0.922;entryDx=0;entryDy=0;entryPerimeter=0;exitX=0.286;exitY=-0.02;exitDx=0;exitDy=0;exitPerimeter=0;" parent="1" source="1rP7fkY4lVl0kBXB7WDJ-11" target="1rP7fkY4lVl0kBXB7WDJ-36" edge="1">
          <mxGeometry width="100" height="100" relative="1" as="geometry">
            <mxPoint x="217" y="150" as="sourcePoint" />
            <mxPoint x="232" y="69" as="targetPoint" />
          </mxGeometry>
        </mxCell>
        <mxCell id="1rP7fkY4lVl0kBXB7WDJ-38" value="" style="fontSize=12;html=1;endArrow=ERone;endFill=1;rounded=0;exitX=1;exitY=0.5;exitDx=0;exitDy=0;entryX=0;entryY=0;entryDx=0;entryDy=0;" parent="1" source="1rP7fkY4lVl0kBXB7WDJ-12" target="1rP7fkY4lVl0kBXB7WDJ-10" edge="1">
          <mxGeometry width="100" height="100" relative="1" as="geometry">
            <mxPoint x="260" y="410" as="sourcePoint" />
            <mxPoint x="360" y="310" as="targetPoint" />
          </mxGeometry>
        </mxCell>
        <mxCell id="1rP7fkY4lVl0kBXB7WDJ-39" value="" style="fontSize=12;html=1;endArrow=ERone;endFill=1;rounded=0;exitX=1;exitY=0.5;exitDx=0;exitDy=0;entryX=0.001;entryY=0.454;entryDx=0;entryDy=0;entryPerimeter=0;" parent="1" source="1rP7fkY4lVl0kBXB7WDJ-13" target="1rP7fkY4lVl0kBXB7WDJ-10" edge="1">
          <mxGeometry width="100" height="100" relative="1" as="geometry">
            <mxPoint x="60" y="330" as="sourcePoint" />
            <mxPoint x="160" y="400" as="targetPoint" />
          </mxGeometry>
        </mxCell>
        <mxCell id="1rP7fkY4lVl0kBXB7WDJ-40" value="" style="fontSize=12;html=1;endArrow=ERone;endFill=1;rounded=0;exitX=0.963;exitY=0.283;exitDx=0;exitDy=0;entryX=0;entryY=1;entryDx=0;entryDy=0;exitPerimeter=0;" parent="1" source="1rP7fkY4lVl0kBXB7WDJ-14" target="1rP7fkY4lVl0kBXB7WDJ-10" edge="1">
          <mxGeometry width="100" height="100" relative="1" as="geometry">
            <mxPoint x="60" y="420" as="sourcePoint" />
            <mxPoint x="158" y="419" as="targetPoint" />
          </mxGeometry>
        </mxCell>
        <mxCell id="1rP7fkY4lVl0kBXB7WDJ-41" style="edgeStyle=orthogonalEdgeStyle;rounded=0;orthogonalLoop=1;jettySize=auto;html=1;entryX=0;entryY=0.496;entryDx=0;entryDy=0;entryPerimeter=0;exitX=1;exitY=0;exitDx=0;exitDy=0;" parent="1" source="1rP7fkY4lVl0kBXB7WDJ-10" target="1rP7fkY4lVl0kBXB7WDJ-4" edge="1">
          <mxGeometry relative="1" as="geometry">
            <mxPoint x="250" y="380" as="sourcePoint" />
            <mxPoint x="364" y="351" as="targetPoint" />
            <Array as="points">
              <mxPoint x="250" y="400" />
              <mxPoint x="270" y="400" />
              <mxPoint x="270" y="295" />
            </Array>
          </mxGeometry>
        </mxCell>
        <mxCell id="1rP7fkY4lVl0kBXB7WDJ-42" style="edgeStyle=orthogonalEdgeStyle;rounded=0;orthogonalLoop=1;jettySize=auto;html=1;exitX=1;exitY=0.422;exitDx=0;exitDy=0;entryX=0;entryY=0.5;entryDx=0;entryDy=0;entryPerimeter=0;exitPerimeter=0;" parent="1" source="1rP7fkY4lVl0kBXB7WDJ-10" target="1rP7fkY4lVl0kBXB7WDJ-15" edge="1">
          <mxGeometry relative="1" as="geometry">
            <mxPoint x="230" y="460" as="sourcePoint" />
            <mxPoint x="374" y="461" as="targetPoint" />
          </mxGeometry>
        </mxCell>
        <mxCell id="1rP7fkY4lVl0kBXB7WDJ-43" style="edgeStyle=orthogonalEdgeStyle;rounded=0;orthogonalLoop=1;jettySize=auto;html=1;exitX=0.998;exitY=0.605;exitDx=0;exitDy=0;entryX=-0.002;entryY=0.493;entryDx=0;entryDy=0;entryPerimeter=0;exitPerimeter=0;" parent="1" source="1rP7fkY4lVl0kBXB7WDJ-10" target="1rP7fkY4lVl0kBXB7WDJ-16" edge="1">
          <mxGeometry relative="1" as="geometry">
            <mxPoint x="220" y="570" as="sourcePoint" />
            <mxPoint x="364" y="571" as="targetPoint" />
            <Array as="points">
              <mxPoint x="310" y="414" />
              <mxPoint x="310" y="560" />
              <mxPoint x="391" y="560" />
            </Array>
          </mxGeometry>
        </mxCell>
        <mxCell id="1rP7fkY4lVl0kBXB7WDJ-44" style="edgeStyle=orthogonalEdgeStyle;rounded=0;orthogonalLoop=1;jettySize=auto;html=1;exitX=1.003;exitY=0.855;exitDx=0;exitDy=0;entryX=-0.005;entryY=0.493;entryDx=0;entryDy=0;entryPerimeter=0;exitPerimeter=0;" parent="1" source="1rP7fkY4lVl0kBXB7WDJ-10" target="1rP7fkY4lVl0kBXB7WDJ-17" edge="1">
          <mxGeometry relative="1" as="geometry">
            <mxPoint x="250" y="420" as="sourcePoint" />
            <mxPoint x="389" y="554" as="targetPoint" />
            <Array as="points">
              <mxPoint x="250" y="420" />
              <mxPoint x="270" y="420" />
              <mxPoint x="270" y="694" />
            </Array>
          </mxGeometry>
        </mxCell>
        <mxCell id="1rP7fkY4lVl0kBXB7WDJ-45" value="ticket_id" style="ellipse;whiteSpace=wrap;html=1;align=center;" parent="1" vertex="1">
          <mxGeometry x="640" y="-230" width="100" height="40" as="geometry" />
        </mxCell>
        <mxCell id="1rP7fkY4lVl0kBXB7WDJ-46" value="client_id" style="ellipse;whiteSpace=wrap;html=1;align=center;" parent="1" vertex="1">
          <mxGeometry x="815" y="-210" width="100" height="40" as="geometry" />
        </mxCell>
        <mxCell id="1rP7fkY4lVl0kBXB7WDJ-48" value="Стоимость билета" style="ellipse;whiteSpace=wrap;html=1;align=center;" parent="1" vertex="1">
          <mxGeometry x="950" y="-240" width="100" height="40" as="geometry" />
        </mxCell>
        <mxCell id="1rP7fkY4lVl0kBXB7WDJ-49" value="Покупка/бронирование" style="ellipse;whiteSpace=wrap;html=1;align=center;" parent="1" vertex="1">
          <mxGeometry x="715" y="-150" width="100" height="40" as="geometry" />
        </mxCell>
        <mxCell id="1rP7fkY4lVl0kBXB7WDJ-50" value="Дата операции" style="ellipse;whiteSpace=wrap;html=1;align=center;" parent="1" vertex="1">
          <mxGeometry x="590" y="-140" width="100" height="40" as="geometry" />
        </mxCell>
        <mxCell id="1rP7fkY4lVl0kBXB7WDJ-51" value="Дата мероприятия" style="ellipse;whiteSpace=wrap;html=1;align=center;" parent="1" vertex="1">
          <mxGeometry x="895" y="-95" width="100" height="40" as="geometry" />
        </mxCell>
        <mxCell id="1rP7fkY4lVl0kBXB7WDJ-53" value="Клинет" style="shape=table;startSize=30;container=1;collapsible=1;childLayout=tableLayout;fixedRows=1;rowLines=0;fontStyle=1;align=center;resizeLast=1;html=1;" parent="1" vertex="1">
          <mxGeometry x="130" y="1250" width="180" height="210" as="geometry" />
        </mxCell>
        <mxCell id="1rP7fkY4lVl0kBXB7WDJ-54" value="" style="shape=tableRow;horizontal=0;startSize=0;swimlaneHead=0;swimlaneBody=0;fillColor=none;collapsible=0;dropTarget=0;points=[[0,0.5],[1,0.5]];portConstraint=eastwest;top=0;left=0;right=0;bottom=1;" parent="1rP7fkY4lVl0kBXB7WDJ-53" vertex="1">
          <mxGeometry y="30" width="180" height="30" as="geometry" />
        </mxCell>
        <mxCell id="1rP7fkY4lVl0kBXB7WDJ-55" value="PK" style="shape=partialRectangle;connectable=0;fillColor=none;top=0;left=0;bottom=0;right=0;fontStyle=1;overflow=hidden;whiteSpace=wrap;html=1;" parent="1rP7fkY4lVl0kBXB7WDJ-54" vertex="1">
          <mxGeometry width="30" height="30" as="geometry">
            <mxRectangle width="30" height="30" as="alternateBounds" />
          </mxGeometry>
        </mxCell>
        <mxCell id="1rP7fkY4lVl0kBXB7WDJ-56" value="client_id (char)" style="shape=partialRectangle;connectable=0;fillColor=none;top=0;left=0;bottom=0;right=0;align=left;spacingLeft=6;fontStyle=5;overflow=hidden;whiteSpace=wrap;html=1;" parent="1rP7fkY4lVl0kBXB7WDJ-54" vertex="1">
          <mxGeometry x="30" width="150" height="30" as="geometry">
            <mxRectangle width="150" height="30" as="alternateBounds" />
          </mxGeometry>
        </mxCell>
        <mxCell id="1rP7fkY4lVl0kBXB7WDJ-57" value="" style="shape=tableRow;horizontal=0;startSize=0;swimlaneHead=0;swimlaneBody=0;fillColor=none;collapsible=0;dropTarget=0;points=[[0,0.5],[1,0.5]];portConstraint=eastwest;top=0;left=0;right=0;bottom=0;" parent="1rP7fkY4lVl0kBXB7WDJ-53" vertex="1">
          <mxGeometry y="60" width="180" height="30" as="geometry" />
        </mxCell>
        <mxCell id="1rP7fkY4lVl0kBXB7WDJ-58" value="" style="shape=partialRectangle;connectable=0;fillColor=none;top=0;left=0;bottom=0;right=0;editable=1;overflow=hidden;whiteSpace=wrap;html=1;" parent="1rP7fkY4lVl0kBXB7WDJ-57" vertex="1">
          <mxGeometry width="30" height="30" as="geometry">
            <mxRectangle width="30" height="30" as="alternateBounds" />
          </mxGeometry>
        </mxCell>
        <mxCell id="1rP7fkY4lVl0kBXB7WDJ-59" value="Имя (String)" style="shape=partialRectangle;connectable=0;fillColor=none;top=0;left=0;bottom=0;right=0;align=left;spacingLeft=6;overflow=hidden;whiteSpace=wrap;html=1;" parent="1rP7fkY4lVl0kBXB7WDJ-57" vertex="1">
          <mxGeometry x="30" width="150" height="30" as="geometry">
            <mxRectangle width="150" height="30" as="alternateBounds" />
          </mxGeometry>
        </mxCell>
        <mxCell id="1rP7fkY4lVl0kBXB7WDJ-60" value="" style="shape=tableRow;horizontal=0;startSize=0;swimlaneHead=0;swimlaneBody=0;fillColor=none;collapsible=0;dropTarget=0;points=[[0,0.5],[1,0.5]];portConstraint=eastwest;top=0;left=0;right=0;bottom=0;" parent="1rP7fkY4lVl0kBXB7WDJ-53" vertex="1">
          <mxGeometry y="90" width="180" height="30" as="geometry" />
        </mxCell>
        <mxCell id="1rP7fkY4lVl0kBXB7WDJ-61" value="" style="shape=partialRectangle;connectable=0;fillColor=none;top=0;left=0;bottom=0;right=0;editable=1;overflow=hidden;whiteSpace=wrap;html=1;" parent="1rP7fkY4lVl0kBXB7WDJ-60" vertex="1">
          <mxGeometry width="30" height="30" as="geometry">
            <mxRectangle width="30" height="30" as="alternateBounds" />
          </mxGeometry>
        </mxCell>
        <mxCell id="1rP7fkY4lVl0kBXB7WDJ-62" value="Фамилия (String)" style="shape=partialRectangle;connectable=0;fillColor=none;top=0;left=0;bottom=0;right=0;align=left;spacingLeft=6;overflow=hidden;whiteSpace=wrap;html=1;" parent="1rP7fkY4lVl0kBXB7WDJ-60" vertex="1">
          <mxGeometry x="30" width="150" height="30" as="geometry">
            <mxRectangle width="150" height="30" as="alternateBounds" />
          </mxGeometry>
        </mxCell>
        <mxCell id="1rP7fkY4lVl0kBXB7WDJ-63" value="" style="shape=tableRow;horizontal=0;startSize=0;swimlaneHead=0;swimlaneBody=0;fillColor=none;collapsible=0;dropTarget=0;points=[[0,0.5],[1,0.5]];portConstraint=eastwest;top=0;left=0;right=0;bottom=0;" parent="1rP7fkY4lVl0kBXB7WDJ-53" vertex="1">
          <mxGeometry y="120" width="180" height="30" as="geometry" />
        </mxCell>
        <mxCell id="1rP7fkY4lVl0kBXB7WDJ-64" value="" style="shape=partialRectangle;connectable=0;fillColor=none;top=0;left=0;bottom=0;right=0;editable=1;overflow=hidden;whiteSpace=wrap;html=1;" parent="1rP7fkY4lVl0kBXB7WDJ-63" vertex="1">
          <mxGeometry width="30" height="30" as="geometry">
            <mxRectangle width="30" height="30" as="alternateBounds" />
          </mxGeometry>
        </mxCell>
        <mxCell id="1rP7fkY4lVl0kBXB7WDJ-65" value="Телефон (int)" style="shape=partialRectangle;connectable=0;fillColor=none;top=0;left=0;bottom=0;right=0;align=left;spacingLeft=6;overflow=hidden;whiteSpace=wrap;html=1;" parent="1rP7fkY4lVl0kBXB7WDJ-63" vertex="1">
          <mxGeometry x="30" width="150" height="30" as="geometry">
            <mxRectangle width="150" height="30" as="alternateBounds" />
          </mxGeometry>
        </mxCell>
        <mxCell id="1rP7fkY4lVl0kBXB7WDJ-66" value="" style="shape=tableRow;horizontal=0;startSize=0;swimlaneHead=0;swimlaneBody=0;fillColor=none;collapsible=0;dropTarget=0;points=[[0,0.5],[1,0.5]];portConstraint=eastwest;top=0;left=0;right=0;bottom=0;" parent="1rP7fkY4lVl0kBXB7WDJ-53" vertex="1">
          <mxGeometry y="150" width="180" height="30" as="geometry" />
        </mxCell>
        <mxCell id="1rP7fkY4lVl0kBXB7WDJ-67" value="" style="shape=partialRectangle;connectable=0;fillColor=none;top=0;left=0;bottom=0;right=0;editable=1;overflow=hidden;whiteSpace=wrap;html=1;" parent="1rP7fkY4lVl0kBXB7WDJ-66" vertex="1">
          <mxGeometry width="30" height="30" as="geometry">
            <mxRectangle width="30" height="30" as="alternateBounds" />
          </mxGeometry>
        </mxCell>
        <mxCell id="1rP7fkY4lVl0kBXB7WDJ-68" value="Email (varchar)" style="shape=partialRectangle;connectable=0;fillColor=none;top=0;left=0;bottom=0;right=0;align=left;spacingLeft=6;overflow=hidden;whiteSpace=wrap;html=1;" parent="1rP7fkY4lVl0kBXB7WDJ-66" vertex="1">
          <mxGeometry x="30" width="150" height="30" as="geometry">
            <mxRectangle width="150" height="30" as="alternateBounds" />
          </mxGeometry>
        </mxCell>
        <mxCell id="1rP7fkY4lVl0kBXB7WDJ-329" value="" style="shape=tableRow;horizontal=0;startSize=0;swimlaneHead=0;swimlaneBody=0;fillColor=none;collapsible=0;dropTarget=0;points=[[0,0.5],[1,0.5]];portConstraint=eastwest;top=0;left=0;right=0;bottom=0;" parent="1rP7fkY4lVl0kBXB7WDJ-53" vertex="1">
          <mxGeometry y="180" width="180" height="30" as="geometry" />
        </mxCell>
        <mxCell id="1rP7fkY4lVl0kBXB7WDJ-330" value="" style="shape=partialRectangle;connectable=0;fillColor=none;top=0;left=0;bottom=0;right=0;editable=1;overflow=hidden;whiteSpace=wrap;html=1;" parent="1rP7fkY4lVl0kBXB7WDJ-329" vertex="1">
          <mxGeometry width="30" height="30" as="geometry">
            <mxRectangle width="30" height="30" as="alternateBounds" />
          </mxGeometry>
        </mxCell>
        <mxCell id="1rP7fkY4lVl0kBXB7WDJ-331" value="Баланс кэшбэка (float)" style="shape=partialRectangle;connectable=0;fillColor=none;top=0;left=0;bottom=0;right=0;align=left;spacingLeft=6;overflow=hidden;whiteSpace=wrap;html=1;" parent="1rP7fkY4lVl0kBXB7WDJ-329" vertex="1">
          <mxGeometry x="30" width="150" height="30" as="geometry">
            <mxRectangle width="150" height="30" as="alternateBounds" />
          </mxGeometry>
        </mxCell>
        <mxCell id="1rP7fkY4lVl0kBXB7WDJ-69" value="Роль" style="shape=table;startSize=30;container=1;collapsible=1;childLayout=tableLayout;fixedRows=1;rowLines=0;fontStyle=1;align=center;resizeLast=1;html=1;" parent="1" vertex="1">
          <mxGeometry x="140" y="1640" width="180" height="120" as="geometry" />
        </mxCell>
        <mxCell id="1rP7fkY4lVl0kBXB7WDJ-70" value="" style="shape=tableRow;horizontal=0;startSize=0;swimlaneHead=0;swimlaneBody=0;fillColor=none;collapsible=0;dropTarget=0;points=[[0,0.5],[1,0.5]];portConstraint=eastwest;top=0;left=0;right=0;bottom=1;" parent="1rP7fkY4lVl0kBXB7WDJ-69" vertex="1">
          <mxGeometry y="30" width="180" height="30" as="geometry" />
        </mxCell>
        <mxCell id="1rP7fkY4lVl0kBXB7WDJ-71" value="PK" style="shape=partialRectangle;connectable=0;fillColor=none;top=0;left=0;bottom=0;right=0;fontStyle=1;overflow=hidden;whiteSpace=wrap;html=1;" parent="1rP7fkY4lVl0kBXB7WDJ-70" vertex="1">
          <mxGeometry width="30" height="30" as="geometry">
            <mxRectangle width="30" height="30" as="alternateBounds" />
          </mxGeometry>
        </mxCell>
        <mxCell id="1rP7fkY4lVl0kBXB7WDJ-72" value="role_id (char)" style="shape=partialRectangle;connectable=0;fillColor=none;top=0;left=0;bottom=0;right=0;align=left;spacingLeft=6;fontStyle=5;overflow=hidden;whiteSpace=wrap;html=1;" parent="1rP7fkY4lVl0kBXB7WDJ-70" vertex="1">
          <mxGeometry x="30" width="150" height="30" as="geometry">
            <mxRectangle width="150" height="30" as="alternateBounds" />
          </mxGeometry>
        </mxCell>
        <mxCell id="1rP7fkY4lVl0kBXB7WDJ-73" value="" style="shape=tableRow;horizontal=0;startSize=0;swimlaneHead=0;swimlaneBody=0;fillColor=none;collapsible=0;dropTarget=0;points=[[0,0.5],[1,0.5]];portConstraint=eastwest;top=0;left=0;right=0;bottom=0;" parent="1rP7fkY4lVl0kBXB7WDJ-69" vertex="1">
          <mxGeometry y="60" width="180" height="30" as="geometry" />
        </mxCell>
        <mxCell id="1rP7fkY4lVl0kBXB7WDJ-74" value="" style="shape=partialRectangle;connectable=0;fillColor=none;top=0;left=0;bottom=0;right=0;editable=1;overflow=hidden;whiteSpace=wrap;html=1;" parent="1rP7fkY4lVl0kBXB7WDJ-73" vertex="1">
          <mxGeometry width="30" height="30" as="geometry">
            <mxRectangle width="30" height="30" as="alternateBounds" />
          </mxGeometry>
        </mxCell>
        <mxCell id="1rP7fkY4lVl0kBXB7WDJ-75" value="Наименование (String)" style="shape=partialRectangle;connectable=0;fillColor=none;top=0;left=0;bottom=0;right=0;align=left;spacingLeft=6;overflow=hidden;whiteSpace=wrap;html=1;" parent="1rP7fkY4lVl0kBXB7WDJ-73" vertex="1">
          <mxGeometry x="30" width="150" height="30" as="geometry">
            <mxRectangle width="150" height="30" as="alternateBounds" />
          </mxGeometry>
        </mxCell>
        <mxCell id="1rP7fkY4lVl0kBXB7WDJ-76" value="" style="shape=tableRow;horizontal=0;startSize=0;swimlaneHead=0;swimlaneBody=0;fillColor=none;collapsible=0;dropTarget=0;points=[[0,0.5],[1,0.5]];portConstraint=eastwest;top=0;left=0;right=0;bottom=0;" parent="1rP7fkY4lVl0kBXB7WDJ-69" vertex="1">
          <mxGeometry y="90" width="180" height="30" as="geometry" />
        </mxCell>
        <mxCell id="1rP7fkY4lVl0kBXB7WDJ-77" value="" style="shape=partialRectangle;connectable=0;fillColor=none;top=0;left=0;bottom=0;right=0;editable=1;overflow=hidden;whiteSpace=wrap;html=1;" parent="1rP7fkY4lVl0kBXB7WDJ-76" vertex="1">
          <mxGeometry width="30" height="30" as="geometry">
            <mxRectangle width="30" height="30" as="alternateBounds" />
          </mxGeometry>
        </mxCell>
        <mxCell id="1rP7fkY4lVl0kBXB7WDJ-78" value="Дата создания (datetime)" style="shape=partialRectangle;connectable=0;fillColor=none;top=0;left=0;bottom=0;right=0;align=left;spacingLeft=6;overflow=hidden;whiteSpace=wrap;html=1;" parent="1rP7fkY4lVl0kBXB7WDJ-76" vertex="1">
          <mxGeometry x="30" width="150" height="30" as="geometry">
            <mxRectangle width="150" height="30" as="alternateBounds" />
          </mxGeometry>
        </mxCell>
        <mxCell id="1rP7fkY4lVl0kBXB7WDJ-85" value="Билет" style="shape=table;startSize=30;container=1;collapsible=1;childLayout=tableLayout;fixedRows=1;rowLines=0;fontStyle=1;align=center;resizeLast=1;html=1;" parent="1" vertex="1">
          <mxGeometry x="470" y="1435" width="180" height="240" as="geometry" />
        </mxCell>
        <mxCell id="1rP7fkY4lVl0kBXB7WDJ-86" value="" style="shape=tableRow;horizontal=0;startSize=0;swimlaneHead=0;swimlaneBody=0;fillColor=none;collapsible=0;dropTarget=0;points=[[0,0.5],[1,0.5]];portConstraint=eastwest;top=0;left=0;right=0;bottom=1;" parent="1rP7fkY4lVl0kBXB7WDJ-85" vertex="1">
          <mxGeometry y="30" width="180" height="30" as="geometry" />
        </mxCell>
        <mxCell id="1rP7fkY4lVl0kBXB7WDJ-87" value="PK" style="shape=partialRectangle;connectable=0;fillColor=none;top=0;left=0;bottom=0;right=0;fontStyle=1;overflow=hidden;whiteSpace=wrap;html=1;" parent="1rP7fkY4lVl0kBXB7WDJ-86" vertex="1">
          <mxGeometry width="30" height="30" as="geometry">
            <mxRectangle width="30" height="30" as="alternateBounds" />
          </mxGeometry>
        </mxCell>
        <mxCell id="1rP7fkY4lVl0kBXB7WDJ-88" value="ticket_id (char)" style="shape=partialRectangle;connectable=0;fillColor=none;top=0;left=0;bottom=0;right=0;align=left;spacingLeft=6;fontStyle=5;overflow=hidden;whiteSpace=wrap;html=1;" parent="1rP7fkY4lVl0kBXB7WDJ-86" vertex="1">
          <mxGeometry x="30" width="150" height="30" as="geometry">
            <mxRectangle width="150" height="30" as="alternateBounds" />
          </mxGeometry>
        </mxCell>
        <mxCell id="1rP7fkY4lVl0kBXB7WDJ-89" value="" style="shape=tableRow;horizontal=0;startSize=0;swimlaneHead=0;swimlaneBody=0;fillColor=none;collapsible=0;dropTarget=0;points=[[0,0.5],[1,0.5]];portConstraint=eastwest;top=0;left=0;right=0;bottom=0;" parent="1rP7fkY4lVl0kBXB7WDJ-85" vertex="1">
          <mxGeometry y="60" width="180" height="30" as="geometry" />
        </mxCell>
        <mxCell id="1rP7fkY4lVl0kBXB7WDJ-90" value="FK" style="shape=partialRectangle;connectable=0;fillColor=none;top=0;left=0;bottom=0;right=0;editable=1;overflow=hidden;whiteSpace=wrap;html=1;" parent="1rP7fkY4lVl0kBXB7WDJ-89" vertex="1">
          <mxGeometry width="30" height="30" as="geometry">
            <mxRectangle width="30" height="30" as="alternateBounds" />
          </mxGeometry>
        </mxCell>
        <mxCell id="1rP7fkY4lVl0kBXB7WDJ-91" value="client_id (char)" style="shape=partialRectangle;connectable=0;fillColor=none;top=0;left=0;bottom=0;right=0;align=left;spacingLeft=6;overflow=hidden;whiteSpace=wrap;html=1;" parent="1rP7fkY4lVl0kBXB7WDJ-89" vertex="1">
          <mxGeometry x="30" width="150" height="30" as="geometry">
            <mxRectangle width="150" height="30" as="alternateBounds" />
          </mxGeometry>
        </mxCell>
        <mxCell id="1rP7fkY4lVl0kBXB7WDJ-147" value="" style="shape=tableRow;horizontal=0;startSize=0;swimlaneHead=0;swimlaneBody=0;fillColor=none;collapsible=0;dropTarget=0;points=[[0,0.5],[1,0.5]];portConstraint=eastwest;top=0;left=0;right=0;bottom=0;" parent="1rP7fkY4lVl0kBXB7WDJ-85" vertex="1">
          <mxGeometry y="90" width="180" height="30" as="geometry" />
        </mxCell>
        <mxCell id="1rP7fkY4lVl0kBXB7WDJ-148" value="" style="shape=partialRectangle;connectable=0;fillColor=none;top=0;left=0;bottom=0;right=0;editable=1;overflow=hidden;whiteSpace=wrap;html=1;" parent="1rP7fkY4lVl0kBXB7WDJ-147" vertex="1">
          <mxGeometry width="30" height="30" as="geometry">
            <mxRectangle width="30" height="30" as="alternateBounds" />
          </mxGeometry>
        </mxCell>
        <mxCell id="1rP7fkY4lVl0kBXB7WDJ-149" value="Ряд (int)" style="shape=partialRectangle;connectable=0;fillColor=none;top=0;left=0;bottom=0;right=0;align=left;spacingLeft=6;overflow=hidden;whiteSpace=wrap;html=1;" parent="1rP7fkY4lVl0kBXB7WDJ-147" vertex="1">
          <mxGeometry x="30" width="150" height="30" as="geometry">
            <mxRectangle width="150" height="30" as="alternateBounds" />
          </mxGeometry>
        </mxCell>
        <mxCell id="1rP7fkY4lVl0kBXB7WDJ-150" value="" style="shape=tableRow;horizontal=0;startSize=0;swimlaneHead=0;swimlaneBody=0;fillColor=none;collapsible=0;dropTarget=0;points=[[0,0.5],[1,0.5]];portConstraint=eastwest;top=0;left=0;right=0;bottom=0;" parent="1rP7fkY4lVl0kBXB7WDJ-85" vertex="1">
          <mxGeometry y="120" width="180" height="30" as="geometry" />
        </mxCell>
        <mxCell id="1rP7fkY4lVl0kBXB7WDJ-151" value="" style="shape=partialRectangle;connectable=0;fillColor=none;top=0;left=0;bottom=0;right=0;editable=1;overflow=hidden;whiteSpace=wrap;html=1;" parent="1rP7fkY4lVl0kBXB7WDJ-150" vertex="1">
          <mxGeometry width="30" height="30" as="geometry">
            <mxRectangle width="30" height="30" as="alternateBounds" />
          </mxGeometry>
        </mxCell>
        <mxCell id="1rP7fkY4lVl0kBXB7WDJ-152" value="Место (int)" style="shape=partialRectangle;connectable=0;fillColor=none;top=0;left=0;bottom=0;right=0;align=left;spacingLeft=6;overflow=hidden;whiteSpace=wrap;html=1;" parent="1rP7fkY4lVl0kBXB7WDJ-150" vertex="1">
          <mxGeometry x="30" width="150" height="30" as="geometry">
            <mxRectangle width="150" height="30" as="alternateBounds" />
          </mxGeometry>
        </mxCell>
        <mxCell id="1rP7fkY4lVl0kBXB7WDJ-92" value="" style="shape=tableRow;horizontal=0;startSize=0;swimlaneHead=0;swimlaneBody=0;fillColor=none;collapsible=0;dropTarget=0;points=[[0,0.5],[1,0.5]];portConstraint=eastwest;top=0;left=0;right=0;bottom=0;" parent="1rP7fkY4lVl0kBXB7WDJ-85" vertex="1">
          <mxGeometry y="150" width="180" height="30" as="geometry" />
        </mxCell>
        <mxCell id="1rP7fkY4lVl0kBXB7WDJ-93" value="" style="shape=partialRectangle;connectable=0;fillColor=none;top=0;left=0;bottom=0;right=0;editable=1;overflow=hidden;whiteSpace=wrap;html=1;" parent="1rP7fkY4lVl0kBXB7WDJ-92" vertex="1">
          <mxGeometry width="30" height="30" as="geometry">
            <mxRectangle width="30" height="30" as="alternateBounds" />
          </mxGeometry>
        </mxCell>
        <mxCell id="1rP7fkY4lVl0kBXB7WDJ-94" value="Наименование мероприятия (String)" style="shape=partialRectangle;connectable=0;fillColor=none;top=0;left=0;bottom=0;right=0;align=left;spacingLeft=6;overflow=hidden;whiteSpace=wrap;html=1;" parent="1rP7fkY4lVl0kBXB7WDJ-92" vertex="1">
          <mxGeometry x="30" width="150" height="30" as="geometry">
            <mxRectangle width="150" height="30" as="alternateBounds" />
          </mxGeometry>
        </mxCell>
        <mxCell id="1rP7fkY4lVl0kBXB7WDJ-95" value="" style="shape=tableRow;horizontal=0;startSize=0;swimlaneHead=0;swimlaneBody=0;fillColor=none;collapsible=0;dropTarget=0;points=[[0,0.5],[1,0.5]];portConstraint=eastwest;top=0;left=0;right=0;bottom=0;" parent="1rP7fkY4lVl0kBXB7WDJ-85" vertex="1">
          <mxGeometry y="180" width="180" height="30" as="geometry" />
        </mxCell>
        <mxCell id="1rP7fkY4lVl0kBXB7WDJ-96" value="" style="shape=partialRectangle;connectable=0;fillColor=none;top=0;left=0;bottom=0;right=0;editable=1;overflow=hidden;whiteSpace=wrap;html=1;" parent="1rP7fkY4lVl0kBXB7WDJ-95" vertex="1">
          <mxGeometry width="30" height="30" as="geometry">
            <mxRectangle width="30" height="30" as="alternateBounds" />
          </mxGeometry>
        </mxCell>
        <mxCell id="1rP7fkY4lVl0kBXB7WDJ-97" value="Стоимость (float)" style="shape=partialRectangle;connectable=0;fillColor=none;top=0;left=0;bottom=0;right=0;align=left;spacingLeft=6;overflow=hidden;whiteSpace=wrap;html=1;" parent="1rP7fkY4lVl0kBXB7WDJ-95" vertex="1">
          <mxGeometry x="30" width="150" height="30" as="geometry">
            <mxRectangle width="150" height="30" as="alternateBounds" />
          </mxGeometry>
        </mxCell>
        <mxCell id="1rP7fkY4lVl0kBXB7WDJ-98" value="" style="shape=tableRow;horizontal=0;startSize=0;swimlaneHead=0;swimlaneBody=0;fillColor=none;collapsible=0;dropTarget=0;points=[[0,0.5],[1,0.5]];portConstraint=eastwest;top=0;left=0;right=0;bottom=0;" parent="1rP7fkY4lVl0kBXB7WDJ-85" vertex="1">
          <mxGeometry y="210" width="180" height="30" as="geometry" />
        </mxCell>
        <mxCell id="1rP7fkY4lVl0kBXB7WDJ-99" value="" style="shape=partialRectangle;connectable=0;fillColor=none;top=0;left=0;bottom=0;right=0;editable=1;overflow=hidden;whiteSpace=wrap;html=1;" parent="1rP7fkY4lVl0kBXB7WDJ-98" vertex="1">
          <mxGeometry width="30" height="30" as="geometry">
            <mxRectangle width="30" height="30" as="alternateBounds" />
          </mxGeometry>
        </mxCell>
        <mxCell id="1rP7fkY4lVl0kBXB7WDJ-100" value="Дата мероприятия (datetime)" style="shape=partialRectangle;connectable=0;fillColor=none;top=0;left=0;bottom=0;right=0;align=left;spacingLeft=6;overflow=hidden;whiteSpace=wrap;html=1;" parent="1rP7fkY4lVl0kBXB7WDJ-98" vertex="1">
          <mxGeometry x="30" width="150" height="30" as="geometry">
            <mxRectangle width="150" height="30" as="alternateBounds" />
          </mxGeometry>
        </mxCell>
        <mxCell id="1rP7fkY4lVl0kBXB7WDJ-101" value="" style="fontSize=12;html=1;endArrow=ERmany;rounded=0;entryX=0;entryY=0.5;entryDx=0;entryDy=0;exitX=1.002;exitY=0.876;exitDx=0;exitDy=0;edgeStyle=orthogonalEdgeStyle;exitPerimeter=0;" parent="1" source="1rP7fkY4lVl0kBXB7WDJ-54" target="1rP7fkY4lVl0kBXB7WDJ-89" edge="1">
          <mxGeometry width="100" height="100" relative="1" as="geometry">
            <mxPoint x="595" y="931" as="sourcePoint" />
            <mxPoint x="480" y="840" as="targetPoint" />
          </mxGeometry>
        </mxCell>
        <mxCell id="1rP7fkY4lVl0kBXB7WDJ-102" value="Наименование мероприятия" style="ellipse;whiteSpace=wrap;html=1;align=center;" parent="1" vertex="1">
          <mxGeometry x="530" y="-90" width="100" height="40" as="geometry" />
        </mxCell>
        <mxCell id="1rP7fkY4lVl0kBXB7WDJ-106" value="Сотрудники театра" style="shape=table;startSize=30;container=1;collapsible=1;childLayout=tableLayout;fixedRows=1;rowLines=0;fontStyle=1;align=center;resizeLast=1;html=1;" parent="1" vertex="1">
          <mxGeometry x="470" y="1725" width="180" height="210" as="geometry" />
        </mxCell>
        <mxCell id="1rP7fkY4lVl0kBXB7WDJ-107" value="" style="shape=tableRow;horizontal=0;startSize=0;swimlaneHead=0;swimlaneBody=0;fillColor=none;collapsible=0;dropTarget=0;points=[[0,0.5],[1,0.5]];portConstraint=eastwest;top=0;left=0;right=0;bottom=1;" parent="1rP7fkY4lVl0kBXB7WDJ-106" vertex="1">
          <mxGeometry y="30" width="180" height="30" as="geometry" />
        </mxCell>
        <mxCell id="1rP7fkY4lVl0kBXB7WDJ-108" value="PK" style="shape=partialRectangle;connectable=0;fillColor=none;top=0;left=0;bottom=0;right=0;fontStyle=1;overflow=hidden;whiteSpace=wrap;html=1;" parent="1rP7fkY4lVl0kBXB7WDJ-107" vertex="1">
          <mxGeometry width="30" height="30" as="geometry">
            <mxRectangle width="30" height="30" as="alternateBounds" />
          </mxGeometry>
        </mxCell>
        <mxCell id="1rP7fkY4lVl0kBXB7WDJ-109" value="employee_id (int)" style="shape=partialRectangle;connectable=0;fillColor=none;top=0;left=0;bottom=0;right=0;align=left;spacingLeft=6;fontStyle=5;overflow=hidden;whiteSpace=wrap;html=1;" parent="1rP7fkY4lVl0kBXB7WDJ-107" vertex="1">
          <mxGeometry x="30" width="150" height="30" as="geometry">
            <mxRectangle width="150" height="30" as="alternateBounds" />
          </mxGeometry>
        </mxCell>
        <mxCell id="1rP7fkY4lVl0kBXB7WDJ-113" value="" style="shape=tableRow;horizontal=0;startSize=0;swimlaneHead=0;swimlaneBody=0;fillColor=none;collapsible=0;dropTarget=0;points=[[0,0.5],[1,0.5]];portConstraint=eastwest;top=0;left=0;right=0;bottom=0;" parent="1rP7fkY4lVl0kBXB7WDJ-106" vertex="1">
          <mxGeometry y="60" width="180" height="30" as="geometry" />
        </mxCell>
        <mxCell id="1rP7fkY4lVl0kBXB7WDJ-114" value="" style="shape=partialRectangle;connectable=0;fillColor=none;top=0;left=0;bottom=0;right=0;editable=1;overflow=hidden;whiteSpace=wrap;html=1;" parent="1rP7fkY4lVl0kBXB7WDJ-113" vertex="1">
          <mxGeometry width="30" height="30" as="geometry">
            <mxRectangle width="30" height="30" as="alternateBounds" />
          </mxGeometry>
        </mxCell>
        <mxCell id="1rP7fkY4lVl0kBXB7WDJ-115" value="ФИО сотрудника (String)" style="shape=partialRectangle;connectable=0;fillColor=none;top=0;left=0;bottom=0;right=0;align=left;spacingLeft=6;overflow=hidden;whiteSpace=wrap;html=1;" parent="1rP7fkY4lVl0kBXB7WDJ-113" vertex="1">
          <mxGeometry x="30" width="150" height="30" as="geometry">
            <mxRectangle width="150" height="30" as="alternateBounds" />
          </mxGeometry>
        </mxCell>
        <mxCell id="1rP7fkY4lVl0kBXB7WDJ-122" value="" style="shape=tableRow;horizontal=0;startSize=0;swimlaneHead=0;swimlaneBody=0;fillColor=none;collapsible=0;dropTarget=0;points=[[0,0.5],[1,0.5]];portConstraint=eastwest;top=0;left=0;right=0;bottom=0;" parent="1rP7fkY4lVl0kBXB7WDJ-106" vertex="1">
          <mxGeometry y="90" width="180" height="30" as="geometry" />
        </mxCell>
        <mxCell id="1rP7fkY4lVl0kBXB7WDJ-123" value="FK" style="shape=partialRectangle;connectable=0;fillColor=none;top=0;left=0;bottom=0;right=0;editable=1;overflow=hidden;whiteSpace=wrap;html=1;" parent="1rP7fkY4lVl0kBXB7WDJ-122" vertex="1">
          <mxGeometry width="30" height="30" as="geometry">
            <mxRectangle width="30" height="30" as="alternateBounds" />
          </mxGeometry>
        </mxCell>
        <mxCell id="1rP7fkY4lVl0kBXB7WDJ-124" value="document_id (char)" style="shape=partialRectangle;connectable=0;fillColor=none;top=0;left=0;bottom=0;right=0;align=left;spacingLeft=6;overflow=hidden;whiteSpace=wrap;html=1;" parent="1rP7fkY4lVl0kBXB7WDJ-122" vertex="1">
          <mxGeometry x="30" width="150" height="30" as="geometry">
            <mxRectangle width="150" height="30" as="alternateBounds" />
          </mxGeometry>
        </mxCell>
        <mxCell id="1rP7fkY4lVl0kBXB7WDJ-110" value="" style="shape=tableRow;horizontal=0;startSize=0;swimlaneHead=0;swimlaneBody=0;fillColor=none;collapsible=0;dropTarget=0;points=[[0,0.5],[1,0.5]];portConstraint=eastwest;top=0;left=0;right=0;bottom=0;" parent="1rP7fkY4lVl0kBXB7WDJ-106" vertex="1">
          <mxGeometry y="120" width="180" height="30" as="geometry" />
        </mxCell>
        <mxCell id="1rP7fkY4lVl0kBXB7WDJ-111" value="FK" style="shape=partialRectangle;connectable=0;fillColor=none;top=0;left=0;bottom=0;right=0;editable=1;overflow=hidden;whiteSpace=wrap;html=1;" parent="1rP7fkY4lVl0kBXB7WDJ-110" vertex="1">
          <mxGeometry width="30" height="30" as="geometry">
            <mxRectangle width="30" height="30" as="alternateBounds" />
          </mxGeometry>
        </mxCell>
        <mxCell id="1rP7fkY4lVl0kBXB7WDJ-112" value="role_id (char)" style="shape=partialRectangle;connectable=0;fillColor=none;top=0;left=0;bottom=0;right=0;align=left;spacingLeft=6;overflow=hidden;whiteSpace=wrap;html=1;" parent="1rP7fkY4lVl0kBXB7WDJ-110" vertex="1">
          <mxGeometry x="30" width="150" height="30" as="geometry">
            <mxRectangle width="150" height="30" as="alternateBounds" />
          </mxGeometry>
        </mxCell>
        <mxCell id="1rP7fkY4lVl0kBXB7WDJ-116" value="" style="shape=tableRow;horizontal=0;startSize=0;swimlaneHead=0;swimlaneBody=0;fillColor=none;collapsible=0;dropTarget=0;points=[[0,0.5],[1,0.5]];portConstraint=eastwest;top=0;left=0;right=0;bottom=0;" parent="1rP7fkY4lVl0kBXB7WDJ-106" vertex="1">
          <mxGeometry y="150" width="180" height="30" as="geometry" />
        </mxCell>
        <mxCell id="1rP7fkY4lVl0kBXB7WDJ-117" value="" style="shape=partialRectangle;connectable=0;fillColor=none;top=0;left=0;bottom=0;right=0;editable=1;overflow=hidden;whiteSpace=wrap;html=1;" parent="1rP7fkY4lVl0kBXB7WDJ-116" vertex="1">
          <mxGeometry width="30" height="30" as="geometry">
            <mxRectangle width="30" height="30" as="alternateBounds" />
          </mxGeometry>
        </mxCell>
        <mxCell id="1rP7fkY4lVl0kBXB7WDJ-118" value="Email (varchar)" style="shape=partialRectangle;connectable=0;fillColor=none;top=0;left=0;bottom=0;right=0;align=left;spacingLeft=6;overflow=hidden;whiteSpace=wrap;html=1;" parent="1rP7fkY4lVl0kBXB7WDJ-116" vertex="1">
          <mxGeometry x="30" width="150" height="30" as="geometry">
            <mxRectangle width="150" height="30" as="alternateBounds" />
          </mxGeometry>
        </mxCell>
        <mxCell id="1rP7fkY4lVl0kBXB7WDJ-119" value="" style="shape=tableRow;horizontal=0;startSize=0;swimlaneHead=0;swimlaneBody=0;fillColor=none;collapsible=0;dropTarget=0;points=[[0,0.5],[1,0.5]];portConstraint=eastwest;top=0;left=0;right=0;bottom=0;" parent="1rP7fkY4lVl0kBXB7WDJ-106" vertex="1">
          <mxGeometry y="180" width="180" height="30" as="geometry" />
        </mxCell>
        <mxCell id="1rP7fkY4lVl0kBXB7WDJ-120" value="" style="shape=partialRectangle;connectable=0;fillColor=none;top=0;left=0;bottom=0;right=0;editable=1;overflow=hidden;whiteSpace=wrap;html=1;" parent="1rP7fkY4lVl0kBXB7WDJ-119" vertex="1">
          <mxGeometry width="30" height="30" as="geometry">
            <mxRectangle width="30" height="30" as="alternateBounds" />
          </mxGeometry>
        </mxCell>
        <mxCell id="1rP7fkY4lVl0kBXB7WDJ-121" value="Телефон (int)" style="shape=partialRectangle;connectable=0;fillColor=none;top=0;left=0;bottom=0;right=0;align=left;spacingLeft=6;overflow=hidden;whiteSpace=wrap;html=1;" parent="1rP7fkY4lVl0kBXB7WDJ-119" vertex="1">
          <mxGeometry x="30" width="150" height="30" as="geometry">
            <mxRectangle width="150" height="30" as="alternateBounds" />
          </mxGeometry>
        </mxCell>
        <mxCell id="1rP7fkY4lVl0kBXB7WDJ-125" value="" style="fontSize=12;html=1;endArrow=ERmany;rounded=0;entryX=0;entryY=0.5;entryDx=0;entryDy=0;exitX=1;exitY=0.5;exitDx=0;exitDy=0;edgeStyle=orthogonalEdgeStyle;" parent="1" source="1rP7fkY4lVl0kBXB7WDJ-70" target="1rP7fkY4lVl0kBXB7WDJ-110" edge="1">
          <mxGeometry width="100" height="100" relative="1" as="geometry">
            <mxPoint x="350" y="1570" as="sourcePoint" />
            <mxPoint x="630" y="1480" as="targetPoint" />
          </mxGeometry>
        </mxCell>
        <mxCell id="1rP7fkY4lVl0kBXB7WDJ-126" value="Документы сотрудников" style="shape=table;startSize=30;container=1;collapsible=1;childLayout=tableLayout;fixedRows=1;rowLines=0;fontStyle=1;align=center;resizeLast=1;html=1;" parent="1" vertex="1">
          <mxGeometry x="470" y="1995" width="180" height="210" as="geometry" />
        </mxCell>
        <mxCell id="1rP7fkY4lVl0kBXB7WDJ-127" value="" style="shape=tableRow;horizontal=0;startSize=0;swimlaneHead=0;swimlaneBody=0;fillColor=none;collapsible=0;dropTarget=0;points=[[0,0.5],[1,0.5]];portConstraint=eastwest;top=0;left=0;right=0;bottom=1;" parent="1rP7fkY4lVl0kBXB7WDJ-126" vertex="1">
          <mxGeometry y="30" width="180" height="30" as="geometry" />
        </mxCell>
        <mxCell id="1rP7fkY4lVl0kBXB7WDJ-128" value="PK" style="shape=partialRectangle;connectable=0;fillColor=none;top=0;left=0;bottom=0;right=0;fontStyle=1;overflow=hidden;whiteSpace=wrap;html=1;" parent="1rP7fkY4lVl0kBXB7WDJ-127" vertex="1">
          <mxGeometry width="30" height="30" as="geometry">
            <mxRectangle width="30" height="30" as="alternateBounds" />
          </mxGeometry>
        </mxCell>
        <mxCell id="1rP7fkY4lVl0kBXB7WDJ-129" value="document_id (int)" style="shape=partialRectangle;connectable=0;fillColor=none;top=0;left=0;bottom=0;right=0;align=left;spacingLeft=6;fontStyle=5;overflow=hidden;whiteSpace=wrap;html=1;" parent="1rP7fkY4lVl0kBXB7WDJ-127" vertex="1">
          <mxGeometry x="30" width="150" height="30" as="geometry">
            <mxRectangle width="150" height="30" as="alternateBounds" />
          </mxGeometry>
        </mxCell>
        <mxCell id="1rP7fkY4lVl0kBXB7WDJ-130" value="" style="shape=tableRow;horizontal=0;startSize=0;swimlaneHead=0;swimlaneBody=0;fillColor=none;collapsible=0;dropTarget=0;points=[[0,0.5],[1,0.5]];portConstraint=eastwest;top=0;left=0;right=0;bottom=0;" parent="1rP7fkY4lVl0kBXB7WDJ-126" vertex="1">
          <mxGeometry y="60" width="180" height="30" as="geometry" />
        </mxCell>
        <mxCell id="1rP7fkY4lVl0kBXB7WDJ-131" value="" style="shape=partialRectangle;connectable=0;fillColor=none;top=0;left=0;bottom=0;right=0;editable=1;overflow=hidden;whiteSpace=wrap;html=1;" parent="1rP7fkY4lVl0kBXB7WDJ-130" vertex="1">
          <mxGeometry width="30" height="30" as="geometry">
            <mxRectangle width="30" height="30" as="alternateBounds" />
          </mxGeometry>
        </mxCell>
        <mxCell id="1rP7fkY4lVl0kBXB7WDJ-132" value="Наименование (String)" style="shape=partialRectangle;connectable=0;fillColor=none;top=0;left=0;bottom=0;right=0;align=left;spacingLeft=6;overflow=hidden;whiteSpace=wrap;html=1;" parent="1rP7fkY4lVl0kBXB7WDJ-130" vertex="1">
          <mxGeometry x="30" width="150" height="30" as="geometry">
            <mxRectangle width="150" height="30" as="alternateBounds" />
          </mxGeometry>
        </mxCell>
        <mxCell id="1rP7fkY4lVl0kBXB7WDJ-133" value="" style="shape=tableRow;horizontal=0;startSize=0;swimlaneHead=0;swimlaneBody=0;fillColor=none;collapsible=0;dropTarget=0;points=[[0,0.5],[1,0.5]];portConstraint=eastwest;top=0;left=0;right=0;bottom=0;" parent="1rP7fkY4lVl0kBXB7WDJ-126" vertex="1">
          <mxGeometry y="90" width="180" height="30" as="geometry" />
        </mxCell>
        <mxCell id="1rP7fkY4lVl0kBXB7WDJ-134" value="" style="shape=partialRectangle;connectable=0;fillColor=none;top=0;left=0;bottom=0;right=0;editable=1;overflow=hidden;whiteSpace=wrap;html=1;" parent="1rP7fkY4lVl0kBXB7WDJ-133" vertex="1">
          <mxGeometry width="30" height="30" as="geometry">
            <mxRectangle width="30" height="30" as="alternateBounds" />
          </mxGeometry>
        </mxCell>
        <mxCell id="1rP7fkY4lVl0kBXB7WDJ-135" value="Серия (varchar)" style="shape=partialRectangle;connectable=0;fillColor=none;top=0;left=0;bottom=0;right=0;align=left;spacingLeft=6;overflow=hidden;whiteSpace=wrap;html=1;" parent="1rP7fkY4lVl0kBXB7WDJ-133" vertex="1">
          <mxGeometry x="30" width="150" height="30" as="geometry">
            <mxRectangle width="150" height="30" as="alternateBounds" />
          </mxGeometry>
        </mxCell>
        <mxCell id="1rP7fkY4lVl0kBXB7WDJ-136" value="" style="shape=tableRow;horizontal=0;startSize=0;swimlaneHead=0;swimlaneBody=0;fillColor=none;collapsible=0;dropTarget=0;points=[[0,0.5],[1,0.5]];portConstraint=eastwest;top=0;left=0;right=0;bottom=0;" parent="1rP7fkY4lVl0kBXB7WDJ-126" vertex="1">
          <mxGeometry y="120" width="180" height="30" as="geometry" />
        </mxCell>
        <mxCell id="1rP7fkY4lVl0kBXB7WDJ-137" value="" style="shape=partialRectangle;connectable=0;fillColor=none;top=0;left=0;bottom=0;right=0;editable=1;overflow=hidden;whiteSpace=wrap;html=1;" parent="1rP7fkY4lVl0kBXB7WDJ-136" vertex="1">
          <mxGeometry width="30" height="30" as="geometry">
            <mxRectangle width="30" height="30" as="alternateBounds" />
          </mxGeometry>
        </mxCell>
        <mxCell id="1rP7fkY4lVl0kBXB7WDJ-138" value="Номер (int)" style="shape=partialRectangle;connectable=0;fillColor=none;top=0;left=0;bottom=0;right=0;align=left;spacingLeft=6;overflow=hidden;whiteSpace=wrap;html=1;" parent="1rP7fkY4lVl0kBXB7WDJ-136" vertex="1">
          <mxGeometry x="30" width="150" height="30" as="geometry">
            <mxRectangle width="150" height="30" as="alternateBounds" />
          </mxGeometry>
        </mxCell>
        <mxCell id="1rP7fkY4lVl0kBXB7WDJ-139" value="" style="shape=tableRow;horizontal=0;startSize=0;swimlaneHead=0;swimlaneBody=0;fillColor=none;collapsible=0;dropTarget=0;points=[[0,0.5],[1,0.5]];portConstraint=eastwest;top=0;left=0;right=0;bottom=0;" parent="1rP7fkY4lVl0kBXB7WDJ-126" vertex="1">
          <mxGeometry y="150" width="180" height="30" as="geometry" />
        </mxCell>
        <mxCell id="1rP7fkY4lVl0kBXB7WDJ-140" value="" style="shape=partialRectangle;connectable=0;fillColor=none;top=0;left=0;bottom=0;right=0;editable=1;overflow=hidden;whiteSpace=wrap;html=1;" parent="1rP7fkY4lVl0kBXB7WDJ-139" vertex="1">
          <mxGeometry width="30" height="30" as="geometry">
            <mxRectangle width="30" height="30" as="alternateBounds" />
          </mxGeometry>
        </mxCell>
        <mxCell id="1rP7fkY4lVl0kBXB7WDJ-141" value="Дата выдачи (date)" style="shape=partialRectangle;connectable=0;fillColor=none;top=0;left=0;bottom=0;right=0;align=left;spacingLeft=6;overflow=hidden;whiteSpace=wrap;html=1;" parent="1rP7fkY4lVl0kBXB7WDJ-139" vertex="1">
          <mxGeometry x="30" width="150" height="30" as="geometry">
            <mxRectangle width="150" height="30" as="alternateBounds" />
          </mxGeometry>
        </mxCell>
        <mxCell id="1rP7fkY4lVl0kBXB7WDJ-142" value="" style="shape=tableRow;horizontal=0;startSize=0;swimlaneHead=0;swimlaneBody=0;fillColor=none;collapsible=0;dropTarget=0;points=[[0,0.5],[1,0.5]];portConstraint=eastwest;top=0;left=0;right=0;bottom=0;" parent="1rP7fkY4lVl0kBXB7WDJ-126" vertex="1">
          <mxGeometry y="180" width="180" height="30" as="geometry" />
        </mxCell>
        <mxCell id="1rP7fkY4lVl0kBXB7WDJ-143" value="" style="shape=partialRectangle;connectable=0;fillColor=none;top=0;left=0;bottom=0;right=0;editable=1;overflow=hidden;whiteSpace=wrap;html=1;" parent="1rP7fkY4lVl0kBXB7WDJ-142" vertex="1">
          <mxGeometry width="30" height="30" as="geometry">
            <mxRectangle width="30" height="30" as="alternateBounds" />
          </mxGeometry>
        </mxCell>
        <mxCell id="1rP7fkY4lVl0kBXB7WDJ-144" value="Кем выдан (String)" style="shape=partialRectangle;connectable=0;fillColor=none;top=0;left=0;bottom=0;right=0;align=left;spacingLeft=6;overflow=hidden;whiteSpace=wrap;html=1;" parent="1rP7fkY4lVl0kBXB7WDJ-142" vertex="1">
          <mxGeometry x="30" width="150" height="30" as="geometry">
            <mxRectangle width="150" height="30" as="alternateBounds" />
          </mxGeometry>
        </mxCell>
        <mxCell id="1rP7fkY4lVl0kBXB7WDJ-146" value="" style="fontSize=12;html=1;endArrow=ERmany;rounded=0;entryX=1;entryY=0.5;entryDx=0;entryDy=0;exitX=1;exitY=0.5;exitDx=0;exitDy=0;edgeStyle=orthogonalEdgeStyle;" parent="1" source="1rP7fkY4lVl0kBXB7WDJ-127" target="1rP7fkY4lVl0kBXB7WDJ-122" edge="1">
          <mxGeometry width="100" height="100" relative="1" as="geometry">
            <mxPoint x="750" y="2005" as="sourcePoint" />
            <mxPoint x="920" y="2055" as="targetPoint" />
            <Array as="points">
              <mxPoint x="690" y="2040" />
              <mxPoint x="690" y="1830" />
            </Array>
          </mxGeometry>
        </mxCell>
        <mxCell id="1rP7fkY4lVl0kBXB7WDJ-153" value="Процесс покупки/бронирования" style="shape=table;startSize=30;container=1;collapsible=1;childLayout=tableLayout;fixedRows=1;rowLines=0;fontStyle=1;align=center;resizeLast=1;html=1;whiteSpace=wrap;" parent="1" vertex="1">
          <mxGeometry x="470" y="1020" width="180" height="268" as="geometry" />
        </mxCell>
        <mxCell id="1rP7fkY4lVl0kBXB7WDJ-154" value="" style="shape=tableRow;horizontal=0;startSize=0;swimlaneHead=0;swimlaneBody=0;fillColor=none;collapsible=0;dropTarget=0;points=[[0,0.5],[1,0.5]];portConstraint=eastwest;top=0;left=0;right=0;bottom=1;" parent="1rP7fkY4lVl0kBXB7WDJ-153" vertex="1">
          <mxGeometry y="30" width="180" height="30" as="geometry" />
        </mxCell>
        <mxCell id="1rP7fkY4lVl0kBXB7WDJ-155" value="PK" style="shape=partialRectangle;connectable=0;fillColor=none;top=0;left=0;bottom=0;right=0;fontStyle=1;overflow=hidden;whiteSpace=wrap;html=1;" parent="1rP7fkY4lVl0kBXB7WDJ-154" vertex="1">
          <mxGeometry width="30" height="30" as="geometry">
            <mxRectangle width="30" height="30" as="alternateBounds" />
          </mxGeometry>
        </mxCell>
        <mxCell id="1rP7fkY4lVl0kBXB7WDJ-156" value="proc_id (char)" style="shape=partialRectangle;connectable=0;fillColor=none;top=0;left=0;bottom=0;right=0;align=left;spacingLeft=6;fontStyle=5;overflow=hidden;whiteSpace=wrap;html=1;" parent="1rP7fkY4lVl0kBXB7WDJ-154" vertex="1">
          <mxGeometry x="30" width="150" height="30" as="geometry">
            <mxRectangle width="150" height="30" as="alternateBounds" />
          </mxGeometry>
        </mxCell>
        <mxCell id="1rP7fkY4lVl0kBXB7WDJ-157" value="" style="shape=tableRow;horizontal=0;startSize=0;swimlaneHead=0;swimlaneBody=0;fillColor=none;collapsible=0;dropTarget=0;points=[[0,0.5],[1,0.5]];portConstraint=eastwest;top=0;left=0;right=0;bottom=0;" parent="1rP7fkY4lVl0kBXB7WDJ-153" vertex="1">
          <mxGeometry y="60" width="180" height="30" as="geometry" />
        </mxCell>
        <mxCell id="1rP7fkY4lVl0kBXB7WDJ-158" value="FK" style="shape=partialRectangle;connectable=0;fillColor=none;top=0;left=0;bottom=0;right=0;editable=1;overflow=hidden;whiteSpace=wrap;html=1;" parent="1rP7fkY4lVl0kBXB7WDJ-157" vertex="1">
          <mxGeometry width="30" height="30" as="geometry">
            <mxRectangle width="30" height="30" as="alternateBounds" />
          </mxGeometry>
        </mxCell>
        <mxCell id="1rP7fkY4lVl0kBXB7WDJ-159" value="ticket_id (char)" style="shape=partialRectangle;connectable=0;fillColor=none;top=0;left=0;bottom=0;right=0;align=left;spacingLeft=6;overflow=hidden;whiteSpace=wrap;html=1;" parent="1rP7fkY4lVl0kBXB7WDJ-157" vertex="1">
          <mxGeometry x="30" width="150" height="30" as="geometry">
            <mxRectangle width="150" height="30" as="alternateBounds" />
          </mxGeometry>
        </mxCell>
        <mxCell id="1rP7fkY4lVl0kBXB7WDJ-275" value="" style="shape=tableRow;horizontal=0;startSize=0;swimlaneHead=0;swimlaneBody=0;fillColor=none;collapsible=0;dropTarget=0;points=[[0,0.5],[1,0.5]];portConstraint=eastwest;top=0;left=0;right=0;bottom=0;" parent="1rP7fkY4lVl0kBXB7WDJ-153" vertex="1">
          <mxGeometry y="90" width="180" height="30" as="geometry" />
        </mxCell>
        <mxCell id="1rP7fkY4lVl0kBXB7WDJ-276" value="FK" style="shape=partialRectangle;connectable=0;fillColor=none;top=0;left=0;bottom=0;right=0;editable=1;overflow=hidden;whiteSpace=wrap;html=1;" parent="1rP7fkY4lVl0kBXB7WDJ-275" vertex="1">
          <mxGeometry width="30" height="30" as="geometry">
            <mxRectangle width="30" height="30" as="alternateBounds" />
          </mxGeometry>
        </mxCell>
        <mxCell id="1rP7fkY4lVl0kBXB7WDJ-277" value="ticket_status_id (int)" style="shape=partialRectangle;connectable=0;fillColor=none;top=0;left=0;bottom=0;right=0;align=left;spacingLeft=6;overflow=hidden;whiteSpace=wrap;html=1;" parent="1rP7fkY4lVl0kBXB7WDJ-275" vertex="1">
          <mxGeometry x="30" width="150" height="30" as="geometry">
            <mxRectangle width="150" height="30" as="alternateBounds" />
          </mxGeometry>
        </mxCell>
        <mxCell id="1rP7fkY4lVl0kBXB7WDJ-160" value="" style="shape=tableRow;horizontal=0;startSize=0;swimlaneHead=0;swimlaneBody=0;fillColor=none;collapsible=0;dropTarget=0;points=[[0,0.5],[1,0.5]];portConstraint=eastwest;top=0;left=0;right=0;bottom=0;" parent="1rP7fkY4lVl0kBXB7WDJ-153" vertex="1">
          <mxGeometry y="120" width="180" height="30" as="geometry" />
        </mxCell>
        <mxCell id="1rP7fkY4lVl0kBXB7WDJ-161" value="FK" style="shape=partialRectangle;connectable=0;fillColor=none;top=0;left=0;bottom=0;right=0;editable=1;overflow=hidden;whiteSpace=wrap;html=1;" parent="1rP7fkY4lVl0kBXB7WDJ-160" vertex="1">
          <mxGeometry width="30" height="30" as="geometry">
            <mxRectangle width="30" height="30" as="alternateBounds" />
          </mxGeometry>
        </mxCell>
        <mxCell id="1rP7fkY4lVl0kBXB7WDJ-162" value="client_id (char)" style="shape=partialRectangle;connectable=0;fillColor=none;top=0;left=0;bottom=0;right=0;align=left;spacingLeft=6;overflow=hidden;whiteSpace=wrap;html=1;" parent="1rP7fkY4lVl0kBXB7WDJ-160" vertex="1">
          <mxGeometry x="30" width="150" height="30" as="geometry">
            <mxRectangle width="150" height="30" as="alternateBounds" />
          </mxGeometry>
        </mxCell>
        <mxCell id="1rP7fkY4lVl0kBXB7WDJ-172" value="" style="shape=tableRow;horizontal=0;startSize=0;swimlaneHead=0;swimlaneBody=0;fillColor=none;collapsible=0;dropTarget=0;points=[[0,0.5],[1,0.5]];portConstraint=eastwest;top=0;left=0;right=0;bottom=0;" parent="1rP7fkY4lVl0kBXB7WDJ-153" vertex="1">
          <mxGeometry y="150" width="180" height="30" as="geometry" />
        </mxCell>
        <mxCell id="1rP7fkY4lVl0kBXB7WDJ-173" value="" style="shape=partialRectangle;connectable=0;fillColor=none;top=0;left=0;bottom=0;right=0;editable=1;overflow=hidden;whiteSpace=wrap;html=1;" parent="1rP7fkY4lVl0kBXB7WDJ-172" vertex="1">
          <mxGeometry width="30" height="30" as="geometry">
            <mxRectangle width="30" height="30" as="alternateBounds" />
          </mxGeometry>
        </mxCell>
        <mxCell id="1rP7fkY4lVl0kBXB7WDJ-174" value="Дата создания записи (datetime)" style="shape=partialRectangle;connectable=0;fillColor=none;top=0;left=0;bottom=0;right=0;align=left;spacingLeft=6;overflow=hidden;whiteSpace=wrap;html=1;" parent="1rP7fkY4lVl0kBXB7WDJ-172" vertex="1">
          <mxGeometry x="30" width="150" height="30" as="geometry">
            <mxRectangle width="150" height="30" as="alternateBounds" />
          </mxGeometry>
        </mxCell>
        <mxCell id="1rP7fkY4lVl0kBXB7WDJ-163" value="" style="shape=tableRow;horizontal=0;startSize=0;swimlaneHead=0;swimlaneBody=0;fillColor=none;collapsible=0;dropTarget=0;points=[[0,0.5],[1,0.5]];portConstraint=eastwest;top=0;left=0;right=0;bottom=0;" parent="1rP7fkY4lVl0kBXB7WDJ-153" vertex="1">
          <mxGeometry y="180" width="180" height="50" as="geometry" />
        </mxCell>
        <mxCell id="1rP7fkY4lVl0kBXB7WDJ-164" value="" style="shape=partialRectangle;connectable=0;fillColor=none;top=0;left=0;bottom=0;right=0;editable=1;overflow=hidden;whiteSpace=wrap;html=1;" parent="1rP7fkY4lVl0kBXB7WDJ-163" vertex="1">
          <mxGeometry width="30" height="50" as="geometry">
            <mxRectangle width="30" height="50" as="alternateBounds" />
          </mxGeometry>
        </mxCell>
        <mxCell id="1rP7fkY4lVl0kBXB7WDJ-165" value="Дата последнего изменения записи(datetime)" style="shape=partialRectangle;connectable=0;fillColor=none;top=0;left=0;bottom=0;right=0;align=left;spacingLeft=6;overflow=hidden;whiteSpace=wrap;html=1;" parent="1rP7fkY4lVl0kBXB7WDJ-163" vertex="1">
          <mxGeometry x="30" width="150" height="50" as="geometry">
            <mxRectangle width="150" height="50" as="alternateBounds" />
          </mxGeometry>
        </mxCell>
        <mxCell id="1rP7fkY4lVl0kBXB7WDJ-305" value="" style="shape=tableRow;horizontal=0;startSize=0;swimlaneHead=0;swimlaneBody=0;fillColor=none;collapsible=0;dropTarget=0;points=[[0,0.5],[1,0.5]];portConstraint=eastwest;top=0;left=0;right=0;bottom=0;" parent="1rP7fkY4lVl0kBXB7WDJ-153" vertex="1">
          <mxGeometry y="230" width="180" height="38" as="geometry" />
        </mxCell>
        <mxCell id="1rP7fkY4lVl0kBXB7WDJ-306" value="" style="shape=partialRectangle;connectable=0;fillColor=none;top=0;left=0;bottom=0;right=0;editable=1;overflow=hidden;whiteSpace=wrap;html=1;" parent="1rP7fkY4lVl0kBXB7WDJ-305" vertex="1">
          <mxGeometry width="30" height="38" as="geometry">
            <mxRectangle width="30" height="38" as="alternateBounds" />
          </mxGeometry>
        </mxCell>
        <mxCell id="1rP7fkY4lVl0kBXB7WDJ-307" value="Количество билетов (int)" style="shape=partialRectangle;connectable=0;fillColor=none;top=0;left=0;bottom=0;right=0;align=left;spacingLeft=6;overflow=hidden;whiteSpace=wrap;html=1;" parent="1rP7fkY4lVl0kBXB7WDJ-305" vertex="1">
          <mxGeometry x="30" width="150" height="38" as="geometry">
            <mxRectangle width="150" height="38" as="alternateBounds" />
          </mxGeometry>
        </mxCell>
        <mxCell id="1rP7fkY4lVl0kBXB7WDJ-175" value="" style="fontSize=12;html=1;endArrow=ERmany;rounded=0;entryX=0;entryY=0.5;entryDx=0;entryDy=0;exitX=0;exitY=0.5;exitDx=0;exitDy=0;edgeStyle=orthogonalEdgeStyle;" parent="1" source="1rP7fkY4lVl0kBXB7WDJ-86" target="1rP7fkY4lVl0kBXB7WDJ-157" edge="1">
          <mxGeometry width="100" height="100" relative="1" as="geometry">
            <mxPoint x="710" y="1240" as="sourcePoint" />
            <mxPoint x="880" y="1260" as="targetPoint" />
            <Array as="points">
              <mxPoint x="440" y="1481" />
              <mxPoint x="440" y="1095" />
            </Array>
          </mxGeometry>
        </mxCell>
        <mxCell id="1rP7fkY4lVl0kBXB7WDJ-179" value="message_id" style="ellipse;whiteSpace=wrap;html=1;align=center;" parent="1" vertex="1">
          <mxGeometry x="860" y="160" width="100" height="40" as="geometry" />
        </mxCell>
        <mxCell id="1rP7fkY4lVl0kBXB7WDJ-180" value="Время отправки" style="ellipse;whiteSpace=wrap;html=1;align=center;" parent="1" vertex="1">
          <mxGeometry x="850" y="240" width="100" height="40" as="geometry" />
        </mxCell>
        <mxCell id="1rP7fkY4lVl0kBXB7WDJ-181" value="Тип сообщения" style="ellipse;whiteSpace=wrap;html=1;align=center;" parent="1" vertex="1">
          <mxGeometry x="980" y="280" width="100" height="40" as="geometry" />
        </mxCell>
        <mxCell id="1rP7fkY4lVl0kBXB7WDJ-182" value="Текст сообщения" style="ellipse;whiteSpace=wrap;html=1;align=center;" parent="1" vertex="1">
          <mxGeometry x="850" y="320" width="100" height="40" as="geometry" />
        </mxCell>
        <mxCell id="1rP7fkY4lVl0kBXB7WDJ-183" value="Способ отправки сообщения" style="ellipse;whiteSpace=wrap;html=1;align=center;" parent="1" vertex="1">
          <mxGeometry x="980" y="200" width="100" height="40" as="geometry" />
        </mxCell>
        <mxCell id="1rP7fkY4lVl0kBXB7WDJ-184" value="Сообщение" style="shape=table;startSize=30;container=1;collapsible=1;childLayout=tableLayout;fixedRows=1;rowLines=0;fontStyle=1;align=center;resizeLast=1;html=1;" parent="1" vertex="1">
          <mxGeometry x="830" y="1020" width="180" height="180" as="geometry" />
        </mxCell>
        <mxCell id="1rP7fkY4lVl0kBXB7WDJ-185" value="" style="shape=tableRow;horizontal=0;startSize=0;swimlaneHead=0;swimlaneBody=0;fillColor=none;collapsible=0;dropTarget=0;points=[[0,0.5],[1,0.5]];portConstraint=eastwest;top=0;left=0;right=0;bottom=1;" parent="1rP7fkY4lVl0kBXB7WDJ-184" vertex="1">
          <mxGeometry y="30" width="180" height="30" as="geometry" />
        </mxCell>
        <mxCell id="1rP7fkY4lVl0kBXB7WDJ-186" value="PK" style="shape=partialRectangle;connectable=0;fillColor=none;top=0;left=0;bottom=0;right=0;fontStyle=1;overflow=hidden;whiteSpace=wrap;html=1;" parent="1rP7fkY4lVl0kBXB7WDJ-185" vertex="1">
          <mxGeometry width="30" height="30" as="geometry">
            <mxRectangle width="30" height="30" as="alternateBounds" />
          </mxGeometry>
        </mxCell>
        <mxCell id="1rP7fkY4lVl0kBXB7WDJ-187" value="message_id (char)" style="shape=partialRectangle;connectable=0;fillColor=none;top=0;left=0;bottom=0;right=0;align=left;spacingLeft=6;fontStyle=5;overflow=hidden;whiteSpace=wrap;html=1;" parent="1rP7fkY4lVl0kBXB7WDJ-185" vertex="1">
          <mxGeometry x="30" width="150" height="30" as="geometry">
            <mxRectangle width="150" height="30" as="alternateBounds" />
          </mxGeometry>
        </mxCell>
        <mxCell id="1rP7fkY4lVl0kBXB7WDJ-188" value="" style="shape=tableRow;horizontal=0;startSize=0;swimlaneHead=0;swimlaneBody=0;fillColor=none;collapsible=0;dropTarget=0;points=[[0,0.5],[1,0.5]];portConstraint=eastwest;top=0;left=0;right=0;bottom=0;" parent="1rP7fkY4lVl0kBXB7WDJ-184" vertex="1">
          <mxGeometry y="60" width="180" height="30" as="geometry" />
        </mxCell>
        <mxCell id="1rP7fkY4lVl0kBXB7WDJ-189" value="FK" style="shape=partialRectangle;connectable=0;fillColor=none;top=0;left=0;bottom=0;right=0;editable=1;overflow=hidden;whiteSpace=wrap;html=1;" parent="1rP7fkY4lVl0kBXB7WDJ-188" vertex="1">
          <mxGeometry width="30" height="30" as="geometry">
            <mxRectangle width="30" height="30" as="alternateBounds" />
          </mxGeometry>
        </mxCell>
        <mxCell id="1rP7fkY4lVl0kBXB7WDJ-190" value="client_id (char)" style="shape=partialRectangle;connectable=0;fillColor=none;top=0;left=0;bottom=0;right=0;align=left;spacingLeft=6;overflow=hidden;whiteSpace=wrap;html=1;" parent="1rP7fkY4lVl0kBXB7WDJ-188" vertex="1">
          <mxGeometry x="30" width="150" height="30" as="geometry">
            <mxRectangle width="150" height="30" as="alternateBounds" />
          </mxGeometry>
        </mxCell>
        <mxCell id="1rP7fkY4lVl0kBXB7WDJ-235" value="" style="shape=tableRow;horizontal=0;startSize=0;swimlaneHead=0;swimlaneBody=0;fillColor=none;collapsible=0;dropTarget=0;points=[[0,0.5],[1,0.5]];portConstraint=eastwest;top=0;left=0;right=0;bottom=0;" parent="1rP7fkY4lVl0kBXB7WDJ-184" vertex="1">
          <mxGeometry y="90" width="180" height="30" as="geometry" />
        </mxCell>
        <mxCell id="1rP7fkY4lVl0kBXB7WDJ-236" value="FK" style="shape=partialRectangle;connectable=0;fillColor=none;top=0;left=0;bottom=0;right=0;editable=1;overflow=hidden;whiteSpace=wrap;html=1;" parent="1rP7fkY4lVl0kBXB7WDJ-235" vertex="1">
          <mxGeometry width="30" height="30" as="geometry">
            <mxRectangle width="30" height="30" as="alternateBounds" />
          </mxGeometry>
        </mxCell>
        <mxCell id="1rP7fkY4lVl0kBXB7WDJ-237" value="message_type_id (char)" style="shape=partialRectangle;connectable=0;fillColor=none;top=0;left=0;bottom=0;right=0;align=left;spacingLeft=6;overflow=hidden;whiteSpace=wrap;html=1;" parent="1rP7fkY4lVl0kBXB7WDJ-235" vertex="1">
          <mxGeometry x="30" width="150" height="30" as="geometry">
            <mxRectangle width="150" height="30" as="alternateBounds" />
          </mxGeometry>
        </mxCell>
        <mxCell id="1rP7fkY4lVl0kBXB7WDJ-191" value="" style="shape=tableRow;horizontal=0;startSize=0;swimlaneHead=0;swimlaneBody=0;fillColor=none;collapsible=0;dropTarget=0;points=[[0,0.5],[1,0.5]];portConstraint=eastwest;top=0;left=0;right=0;bottom=0;" parent="1rP7fkY4lVl0kBXB7WDJ-184" vertex="1">
          <mxGeometry y="120" width="180" height="30" as="geometry" />
        </mxCell>
        <mxCell id="1rP7fkY4lVl0kBXB7WDJ-192" value="" style="shape=partialRectangle;connectable=0;fillColor=none;top=0;left=0;bottom=0;right=0;editable=1;overflow=hidden;whiteSpace=wrap;html=1;" parent="1rP7fkY4lVl0kBXB7WDJ-191" vertex="1">
          <mxGeometry width="30" height="30" as="geometry">
            <mxRectangle width="30" height="30" as="alternateBounds" />
          </mxGeometry>
        </mxCell>
        <mxCell id="1rP7fkY4lVl0kBXB7WDJ-193" value="Время отправки (datetime)" style="shape=partialRectangle;connectable=0;fillColor=none;top=0;left=0;bottom=0;right=0;align=left;spacingLeft=6;overflow=hidden;whiteSpace=wrap;html=1;" parent="1rP7fkY4lVl0kBXB7WDJ-191" vertex="1">
          <mxGeometry x="30" width="150" height="30" as="geometry">
            <mxRectangle width="150" height="30" as="alternateBounds" />
          </mxGeometry>
        </mxCell>
        <mxCell id="1rP7fkY4lVl0kBXB7WDJ-194" value="" style="shape=tableRow;horizontal=0;startSize=0;swimlaneHead=0;swimlaneBody=0;fillColor=none;collapsible=0;dropTarget=0;points=[[0,0.5],[1,0.5]];portConstraint=eastwest;top=0;left=0;right=0;bottom=0;" parent="1rP7fkY4lVl0kBXB7WDJ-184" vertex="1">
          <mxGeometry y="150" width="180" height="30" as="geometry" />
        </mxCell>
        <mxCell id="1rP7fkY4lVl0kBXB7WDJ-195" value="" style="shape=partialRectangle;connectable=0;fillColor=none;top=0;left=0;bottom=0;right=0;editable=1;overflow=hidden;whiteSpace=wrap;html=1;" parent="1rP7fkY4lVl0kBXB7WDJ-194" vertex="1">
          <mxGeometry width="30" height="30" as="geometry">
            <mxRectangle width="30" height="30" as="alternateBounds" />
          </mxGeometry>
        </mxCell>
        <mxCell id="1rP7fkY4lVl0kBXB7WDJ-196" value="Способ отправки (String)" style="shape=partialRectangle;connectable=0;fillColor=none;top=0;left=0;bottom=0;right=0;align=left;spacingLeft=6;overflow=hidden;whiteSpace=wrap;html=1;" parent="1rP7fkY4lVl0kBXB7WDJ-194" vertex="1">
          <mxGeometry x="30" width="150" height="30" as="geometry">
            <mxRectangle width="150" height="30" as="alternateBounds" />
          </mxGeometry>
        </mxCell>
        <mxCell id="1rP7fkY4lVl0kBXB7WDJ-206" value="" style="fontSize=12;html=1;endArrow=ERmany;rounded=0;entryX=0;entryY=0.5;entryDx=0;entryDy=0;exitX=0.999;exitY=0.606;exitDx=0;exitDy=0;edgeStyle=orthogonalEdgeStyle;exitPerimeter=0;" parent="1" source="1rP7fkY4lVl0kBXB7WDJ-54" target="1rP7fkY4lVl0kBXB7WDJ-160" edge="1">
          <mxGeometry width="100" height="100" relative="1" as="geometry">
            <mxPoint x="139.75" y="1110" as="sourcePoint" />
            <mxPoint x="299.75" y="1200" as="targetPoint" />
          </mxGeometry>
        </mxCell>
        <mxCell id="1rP7fkY4lVl0kBXB7WDJ-207" value="" style="fontSize=12;html=1;endArrow=ERmany;rounded=0;entryX=0;entryY=0.5;entryDx=0;entryDy=0;exitX=1.004;exitY=0.203;exitDx=0;exitDy=0;edgeStyle=orthogonalEdgeStyle;exitPerimeter=0;" parent="1" source="1rP7fkY4lVl0kBXB7WDJ-54" target="1rP7fkY4lVl0kBXB7WDJ-188" edge="1">
          <mxGeometry width="100" height="100" relative="1" as="geometry">
            <mxPoint x="180" y="1153" as="sourcePoint" />
            <mxPoint x="340" y="980" as="targetPoint" />
            <Array as="points">
              <mxPoint x="350" y="1286" />
              <mxPoint x="350" y="980" />
              <mxPoint x="790" y="980" />
              <mxPoint x="790" y="1095" />
            </Array>
          </mxGeometry>
        </mxCell>
        <mxCell id="1rP7fkY4lVl0kBXB7WDJ-208" value="" style="fontSize=12;html=1;endArrow=ERmany;rounded=0;entryX=0.5;entryY=1;entryDx=0;entryDy=0;exitX=0.048;exitY=0.023;exitDx=0;exitDy=0;exitPerimeter=0;" parent="1" source="1rP7fkY4lVl0kBXB7WDJ-18" target="1rP7fkY4lVl0kBXB7WDJ-50" edge="1">
          <mxGeometry width="100" height="100" relative="1" as="geometry">
            <mxPoint x="640" y="10" as="sourcePoint" />
            <mxPoint x="590" y="-64" as="targetPoint" />
          </mxGeometry>
        </mxCell>
        <mxCell id="1rP7fkY4lVl0kBXB7WDJ-209" value="" style="fontSize=12;html=1;endArrow=ERmany;rounded=0;entryX=0.338;entryY=0.961;entryDx=0;entryDy=0;entryPerimeter=0;exitX=0.38;exitY=0.024;exitDx=0;exitDy=0;exitPerimeter=0;" parent="1" source="1rP7fkY4lVl0kBXB7WDJ-18" target="1rP7fkY4lVl0kBXB7WDJ-49" edge="1">
          <mxGeometry width="100" height="100" relative="1" as="geometry">
            <mxPoint x="729" y="-30" as="sourcePoint" />
            <mxPoint x="690" y="-101" as="targetPoint" />
          </mxGeometry>
        </mxCell>
        <mxCell id="1rP7fkY4lVl0kBXB7WDJ-210" value="" style="fontSize=12;html=1;endArrow=ERmany;rounded=0;entryX=0.589;entryY=1.006;entryDx=0;entryDy=0;exitX=0.25;exitY=0;exitDx=0;exitDy=0;entryPerimeter=0;" parent="1" source="1rP7fkY4lVl0kBXB7WDJ-18" target="1rP7fkY4lVl0kBXB7WDJ-45" edge="1">
          <mxGeometry width="100" height="100" relative="1" as="geometry">
            <mxPoint x="715" y="-9" as="sourcePoint" />
            <mxPoint x="660" y="-80" as="targetPoint" />
          </mxGeometry>
        </mxCell>
        <mxCell id="1rP7fkY4lVl0kBXB7WDJ-211" value="" style="fontSize=12;html=1;endArrow=ERmany;rounded=0;entryX=0.98;entryY=0.608;entryDx=0;entryDy=0;entryPerimeter=0;exitX=0;exitY=0;exitDx=0;exitDy=0;" parent="1" source="1rP7fkY4lVl0kBXB7WDJ-18" target="1rP7fkY4lVl0kBXB7WDJ-102" edge="1">
          <mxGeometry width="100" height="100" relative="1" as="geometry">
            <mxPoint x="814.5" y="-30" as="sourcePoint" />
            <mxPoint x="835.5" y="-113" as="targetPoint" />
          </mxGeometry>
        </mxCell>
        <mxCell id="1rP7fkY4lVl0kBXB7WDJ-212" value="" style="fontSize=12;html=1;endArrow=ERmany;rounded=0;exitX=0.75;exitY=0;exitDx=0;exitDy=0;entryX=0.427;entryY=0.983;entryDx=0;entryDy=0;entryPerimeter=0;" parent="1" source="1rP7fkY4lVl0kBXB7WDJ-18" target="1rP7fkY4lVl0kBXB7WDJ-46" edge="1">
          <mxGeometry width="100" height="100" relative="1" as="geometry">
            <mxPoint x="895" y="-59" as="sourcePoint" />
            <mxPoint x="860" y="-160" as="targetPoint" />
          </mxGeometry>
        </mxCell>
        <mxCell id="1rP7fkY4lVl0kBXB7WDJ-213" value="" style="fontSize=12;html=1;endArrow=ERmany;rounded=0;entryX=0.037;entryY=0.633;entryDx=0;entryDy=0;entryPerimeter=0;exitX=0.903;exitY=0;exitDx=0;exitDy=0;exitPerimeter=0;" parent="1" source="1rP7fkY4lVl0kBXB7WDJ-18" target="1rP7fkY4lVl0kBXB7WDJ-48" edge="1">
          <mxGeometry width="100" height="100" relative="1" as="geometry">
            <mxPoint x="912" y="-19" as="sourcePoint" />
            <mxPoint x="850" y="-55" as="targetPoint" />
          </mxGeometry>
        </mxCell>
        <mxCell id="1rP7fkY4lVl0kBXB7WDJ-214" value="" style="fontSize=12;html=1;endArrow=ERmany;rounded=0;entryX=0;entryY=0.617;entryDx=0;entryDy=0;entryPerimeter=0;exitX=1;exitY=0;exitDx=0;exitDy=0;" parent="1" source="1rP7fkY4lVl0kBXB7WDJ-18" target="1rP7fkY4lVl0kBXB7WDJ-51" edge="1">
          <mxGeometry width="100" height="100" relative="1" as="geometry">
            <mxPoint x="720" as="sourcePoint" />
            <mxPoint x="658" y="-36" as="targetPoint" />
          </mxGeometry>
        </mxCell>
        <mxCell id="1rP7fkY4lVl0kBXB7WDJ-215" style="edgeStyle=orthogonalEdgeStyle;rounded=0;orthogonalLoop=1;jettySize=auto;html=1;exitX=0.491;exitY=0.033;exitDx=0;exitDy=0;entryX=0;entryY=0.5;entryDx=0;entryDy=0;exitPerimeter=0;" parent="1" source="1rP7fkY4lVl0kBXB7WDJ-3" target="1rP7fkY4lVl0kBXB7WDJ-18" edge="1">
          <mxGeometry relative="1" as="geometry">
            <mxPoint x="540.1500000000001" y="-10.269999999999982" as="sourcePoint" />
            <mxPoint x="644" y="51" as="targetPoint" />
            <Array as="points">
              <mxPoint x="464" y="-10" />
            </Array>
          </mxGeometry>
        </mxCell>
        <mxCell id="1rP7fkY4lVl0kBXB7WDJ-216" value="Тип сообщения" style="shape=table;startSize=30;container=1;collapsible=1;childLayout=tableLayout;fixedRows=1;rowLines=0;fontStyle=1;align=center;resizeLast=1;html=1;" parent="1" vertex="1">
          <mxGeometry x="830" y="1220" width="180" height="120" as="geometry" />
        </mxCell>
        <mxCell id="1rP7fkY4lVl0kBXB7WDJ-217" value="" style="shape=tableRow;horizontal=0;startSize=0;swimlaneHead=0;swimlaneBody=0;fillColor=none;collapsible=0;dropTarget=0;points=[[0,0.5],[1,0.5]];portConstraint=eastwest;top=0;left=0;right=0;bottom=1;" parent="1rP7fkY4lVl0kBXB7WDJ-216" vertex="1">
          <mxGeometry y="30" width="180" height="30" as="geometry" />
        </mxCell>
        <mxCell id="1rP7fkY4lVl0kBXB7WDJ-218" value="PK" style="shape=partialRectangle;connectable=0;fillColor=none;top=0;left=0;bottom=0;right=0;fontStyle=1;overflow=hidden;whiteSpace=wrap;html=1;" parent="1rP7fkY4lVl0kBXB7WDJ-217" vertex="1">
          <mxGeometry width="30" height="30" as="geometry">
            <mxRectangle width="30" height="30" as="alternateBounds" />
          </mxGeometry>
        </mxCell>
        <mxCell id="1rP7fkY4lVl0kBXB7WDJ-219" value="message_type_id (int)" style="shape=partialRectangle;connectable=0;fillColor=none;top=0;left=0;bottom=0;right=0;align=left;spacingLeft=6;fontStyle=5;overflow=hidden;whiteSpace=wrap;html=1;" parent="1rP7fkY4lVl0kBXB7WDJ-217" vertex="1">
          <mxGeometry x="30" width="150" height="30" as="geometry">
            <mxRectangle width="150" height="30" as="alternateBounds" />
          </mxGeometry>
        </mxCell>
        <mxCell id="1rP7fkY4lVl0kBXB7WDJ-220" value="" style="shape=tableRow;horizontal=0;startSize=0;swimlaneHead=0;swimlaneBody=0;fillColor=none;collapsible=0;dropTarget=0;points=[[0,0.5],[1,0.5]];portConstraint=eastwest;top=0;left=0;right=0;bottom=0;" parent="1rP7fkY4lVl0kBXB7WDJ-216" vertex="1">
          <mxGeometry y="60" width="180" height="30" as="geometry" />
        </mxCell>
        <mxCell id="1rP7fkY4lVl0kBXB7WDJ-221" value="" style="shape=partialRectangle;connectable=0;fillColor=none;top=0;left=0;bottom=0;right=0;editable=1;overflow=hidden;whiteSpace=wrap;html=1;" parent="1rP7fkY4lVl0kBXB7WDJ-220" vertex="1">
          <mxGeometry width="30" height="30" as="geometry">
            <mxRectangle width="30" height="30" as="alternateBounds" />
          </mxGeometry>
        </mxCell>
        <mxCell id="1rP7fkY4lVl0kBXB7WDJ-222" value="Тип сообщения (auth, notify)" style="shape=partialRectangle;connectable=0;fillColor=none;top=0;left=0;bottom=0;right=0;align=left;spacingLeft=6;overflow=hidden;whiteSpace=wrap;html=1;" parent="1rP7fkY4lVl0kBXB7WDJ-220" vertex="1">
          <mxGeometry x="30" width="150" height="30" as="geometry">
            <mxRectangle width="150" height="30" as="alternateBounds" />
          </mxGeometry>
        </mxCell>
        <mxCell id="1rP7fkY4lVl0kBXB7WDJ-223" value="" style="shape=tableRow;horizontal=0;startSize=0;swimlaneHead=0;swimlaneBody=0;fillColor=none;collapsible=0;dropTarget=0;points=[[0,0.5],[1,0.5]];portConstraint=eastwest;top=0;left=0;right=0;bottom=0;" parent="1rP7fkY4lVl0kBXB7WDJ-216" vertex="1">
          <mxGeometry y="90" width="180" height="30" as="geometry" />
        </mxCell>
        <mxCell id="1rP7fkY4lVl0kBXB7WDJ-224" value="" style="shape=partialRectangle;connectable=0;fillColor=none;top=0;left=0;bottom=0;right=0;editable=1;overflow=hidden;whiteSpace=wrap;html=1;" parent="1rP7fkY4lVl0kBXB7WDJ-223" vertex="1">
          <mxGeometry width="30" height="30" as="geometry">
            <mxRectangle width="30" height="30" as="alternateBounds" />
          </mxGeometry>
        </mxCell>
        <mxCell id="1rP7fkY4lVl0kBXB7WDJ-225" value="Текст сообщения (String)" style="shape=partialRectangle;connectable=0;fillColor=none;top=0;left=0;bottom=0;right=0;align=left;spacingLeft=6;overflow=hidden;whiteSpace=wrap;html=1;" parent="1rP7fkY4lVl0kBXB7WDJ-223" vertex="1">
          <mxGeometry x="30" width="150" height="30" as="geometry">
            <mxRectangle width="150" height="30" as="alternateBounds" />
          </mxGeometry>
        </mxCell>
        <mxCell id="1rP7fkY4lVl0kBXB7WDJ-238" value="" style="fontSize=12;html=1;endArrow=ERmany;rounded=0;entryX=0;entryY=0.5;entryDx=0;entryDy=0;exitX=0;exitY=0.5;exitDx=0;exitDy=0;edgeStyle=orthogonalEdgeStyle;" parent="1" source="1rP7fkY4lVl0kBXB7WDJ-217" target="1rP7fkY4lVl0kBXB7WDJ-235" edge="1">
          <mxGeometry width="100" height="100" relative="1" as="geometry">
            <mxPoint x="770" y="1420" as="sourcePoint" />
            <mxPoint x="770" y="1160" as="targetPoint" />
            <Array as="points">
              <mxPoint x="790" y="1265" />
              <mxPoint x="790" y="1125" />
            </Array>
          </mxGeometry>
        </mxCell>
        <mxCell id="1rP7fkY4lVl0kBXB7WDJ-239" value="" style="fontSize=12;html=1;endArrow=ERmany;rounded=0;entryX=0;entryY=0.5;entryDx=0;entryDy=0;exitX=1;exitY=0;exitDx=0;exitDy=0;" parent="1" source="1rP7fkY4lVl0kBXB7WDJ-19" target="1rP7fkY4lVl0kBXB7WDJ-179" edge="1">
          <mxGeometry width="100" height="100" relative="1" as="geometry">
            <mxPoint x="800" y="150" as="sourcePoint" />
            <mxPoint x="905" y="110" as="targetPoint" />
          </mxGeometry>
        </mxCell>
        <mxCell id="1rP7fkY4lVl0kBXB7WDJ-240" value="" style="fontSize=12;html=1;endArrow=ERmany;rounded=0;entryX=0;entryY=0.5;entryDx=0;entryDy=0;exitX=1;exitY=0.25;exitDx=0;exitDy=0;" parent="1" source="1rP7fkY4lVl0kBXB7WDJ-19" target="1rP7fkY4lVl0kBXB7WDJ-183" edge="1">
          <mxGeometry width="100" height="100" relative="1" as="geometry">
            <mxPoint x="800" y="260" as="sourcePoint" />
            <mxPoint x="860" y="200" as="targetPoint" />
            <Array as="points">
              <mxPoint x="880" y="230" />
            </Array>
          </mxGeometry>
        </mxCell>
        <mxCell id="1rP7fkY4lVl0kBXB7WDJ-241" value="" style="fontSize=12;html=1;endArrow=ERmany;rounded=0;exitX=1;exitY=0.5;exitDx=0;exitDy=0;entryX=0;entryY=0.5;entryDx=0;entryDy=0;" parent="1" source="1rP7fkY4lVl0kBXB7WDJ-19" target="1rP7fkY4lVl0kBXB7WDJ-180" edge="1">
          <mxGeometry width="100" height="100" relative="1" as="geometry">
            <mxPoint x="810" y="270" as="sourcePoint" />
            <mxPoint x="870" y="210" as="targetPoint" />
          </mxGeometry>
        </mxCell>
        <mxCell id="1rP7fkY4lVl0kBXB7WDJ-242" value="" style="fontSize=12;html=1;endArrow=ERmany;rounded=0;entryX=0.016;entryY=0.38;entryDx=0;entryDy=0;exitX=0.997;exitY=0.665;exitDx=0;exitDy=0;exitPerimeter=0;entryPerimeter=0;" parent="1" source="1rP7fkY4lVl0kBXB7WDJ-19" target="1rP7fkY4lVl0kBXB7WDJ-181" edge="1">
          <mxGeometry width="100" height="100" relative="1" as="geometry">
            <mxPoint x="820" y="280" as="sourcePoint" />
            <mxPoint x="880" y="220" as="targetPoint" />
          </mxGeometry>
        </mxCell>
        <mxCell id="1rP7fkY4lVl0kBXB7WDJ-243" value="" style="fontSize=12;html=1;endArrow=ERmany;rounded=0;entryX=0.092;entryY=0.24;entryDx=0;entryDy=0;exitX=1.004;exitY=0.93;exitDx=0;exitDy=0;exitPerimeter=0;entryPerimeter=0;" parent="1" source="1rP7fkY4lVl0kBXB7WDJ-19" target="1rP7fkY4lVl0kBXB7WDJ-182" edge="1">
          <mxGeometry width="100" height="100" relative="1" as="geometry">
            <mxPoint x="830" y="290" as="sourcePoint" />
            <mxPoint x="890" y="230" as="targetPoint" />
          </mxGeometry>
        </mxCell>
        <mxCell id="1rP7fkY4lVl0kBXB7WDJ-244" style="edgeStyle=orthogonalEdgeStyle;rounded=0;orthogonalLoop=1;jettySize=auto;html=1;exitX=0.997;exitY=0.498;exitDx=0;exitDy=0;exitPerimeter=0;" parent="1" source="1rP7fkY4lVl0kBXB7WDJ-4" edge="1">
          <mxGeometry relative="1" as="geometry">
            <mxPoint x="260" y="400" as="sourcePoint" />
            <mxPoint x="690" y="260" as="targetPoint" />
            <Array as="points">
              <mxPoint x="640" y="295" />
              <mxPoint x="660" y="295" />
              <mxPoint x="660" y="260" />
            </Array>
          </mxGeometry>
        </mxCell>
        <mxCell id="1rP7fkY4lVl0kBXB7WDJ-245" style="edgeStyle=orthogonalEdgeStyle;rounded=0;orthogonalLoop=1;jettySize=auto;html=1;entryX=0.36;entryY=-0.045;entryDx=0;entryDy=0;entryPerimeter=0;exitX=0.499;exitY=0.982;exitDx=0;exitDy=0;exitPerimeter=0;" parent="1" source="1rP7fkY4lVl0kBXB7WDJ-3" target="1rP7fkY4lVl0kBXB7WDJ-19" edge="1">
          <mxGeometry relative="1" as="geometry">
            <mxPoint x="470" y="230" as="sourcePoint" />
            <mxPoint x="624" y="231" as="targetPoint" />
            <Array as="points">
              <mxPoint x="465" y="231" />
              <mxPoint x="726" y="231" />
            </Array>
          </mxGeometry>
        </mxCell>
        <mxCell id="1rP7fkY4lVl0kBXB7WDJ-246" value="Новый пользователь" style="whiteSpace=wrap;html=1;align=center;" parent="1" vertex="1">
          <mxGeometry x="690" y="340" width="100" height="40" as="geometry" />
        </mxCell>
        <mxCell id="1rP7fkY4lVl0kBXB7WDJ-247" style="edgeStyle=orthogonalEdgeStyle;rounded=0;orthogonalLoop=1;jettySize=auto;html=1;exitX=0.497;exitY=0.99;exitDx=0;exitDy=0;entryX=0;entryY=0.25;entryDx=0;entryDy=0;exitPerimeter=0;" parent="1" source="1rP7fkY4lVl0kBXB7WDJ-4" target="1rP7fkY4lVl0kBXB7WDJ-246" edge="1">
          <mxGeometry relative="1" as="geometry">
            <mxPoint x="510" y="359.65999999999997" as="sourcePoint" />
            <mxPoint x="660" y="359.65999999999997" as="targetPoint" />
            <Array as="points">
              <mxPoint x="465" y="350" />
            </Array>
          </mxGeometry>
        </mxCell>
        <mxCell id="1rP7fkY4lVl0kBXB7WDJ-248" value="Статус билета" style="shape=table;startSize=30;container=1;collapsible=1;childLayout=tableLayout;fixedRows=1;rowLines=0;fontStyle=1;align=center;resizeLast=1;html=1;" parent="1" vertex="1">
          <mxGeometry x="470" y="1318" width="180" height="90" as="geometry" />
        </mxCell>
        <mxCell id="1rP7fkY4lVl0kBXB7WDJ-249" value="" style="shape=tableRow;horizontal=0;startSize=0;swimlaneHead=0;swimlaneBody=0;fillColor=none;collapsible=0;dropTarget=0;points=[[0,0.5],[1,0.5]];portConstraint=eastwest;top=0;left=0;right=0;bottom=1;" parent="1rP7fkY4lVl0kBXB7WDJ-248" vertex="1">
          <mxGeometry y="30" width="180" height="30" as="geometry" />
        </mxCell>
        <mxCell id="1rP7fkY4lVl0kBXB7WDJ-250" value="PK" style="shape=partialRectangle;connectable=0;fillColor=none;top=0;left=0;bottom=0;right=0;fontStyle=1;overflow=hidden;whiteSpace=wrap;html=1;" parent="1rP7fkY4lVl0kBXB7WDJ-249" vertex="1">
          <mxGeometry width="30" height="30" as="geometry">
            <mxRectangle width="30" height="30" as="alternateBounds" />
          </mxGeometry>
        </mxCell>
        <mxCell id="1rP7fkY4lVl0kBXB7WDJ-251" value="ticket_status_id (int)" style="shape=partialRectangle;connectable=0;fillColor=none;top=0;left=0;bottom=0;right=0;align=left;spacingLeft=6;fontStyle=5;overflow=hidden;whiteSpace=wrap;html=1;" parent="1rP7fkY4lVl0kBXB7WDJ-249" vertex="1">
          <mxGeometry x="30" width="150" height="30" as="geometry">
            <mxRectangle width="150" height="30" as="alternateBounds" />
          </mxGeometry>
        </mxCell>
        <mxCell id="1rP7fkY4lVl0kBXB7WDJ-252" value="" style="shape=tableRow;horizontal=0;startSize=0;swimlaneHead=0;swimlaneBody=0;fillColor=none;collapsible=0;dropTarget=0;points=[[0,0.5],[1,0.5]];portConstraint=eastwest;top=0;left=0;right=0;bottom=0;" parent="1rP7fkY4lVl0kBXB7WDJ-248" vertex="1">
          <mxGeometry y="60" width="180" height="30" as="geometry" />
        </mxCell>
        <mxCell id="1rP7fkY4lVl0kBXB7WDJ-253" value="" style="shape=partialRectangle;connectable=0;fillColor=none;top=0;left=0;bottom=0;right=0;editable=1;overflow=hidden;whiteSpace=wrap;html=1;" parent="1rP7fkY4lVl0kBXB7WDJ-252" vertex="1">
          <mxGeometry width="30" height="30" as="geometry">
            <mxRectangle width="30" height="30" as="alternateBounds" />
          </mxGeometry>
        </mxCell>
        <mxCell id="1rP7fkY4lVl0kBXB7WDJ-254" value="Наименование статуса (String)" style="shape=partialRectangle;connectable=0;fillColor=none;top=0;left=0;bottom=0;right=0;align=left;spacingLeft=6;overflow=hidden;whiteSpace=wrap;html=1;" parent="1rP7fkY4lVl0kBXB7WDJ-252" vertex="1">
          <mxGeometry x="30" width="150" height="30" as="geometry">
            <mxRectangle width="150" height="30" as="alternateBounds" />
          </mxGeometry>
        </mxCell>
        <mxCell id="1rP7fkY4lVl0kBXB7WDJ-258" value="" style="fontSize=12;html=1;endArrow=ERmany;rounded=0;entryX=1.004;entryY=0.331;entryDx=0;entryDy=0;exitX=1;exitY=0.5;exitDx=0;exitDy=0;edgeStyle=orthogonalEdgeStyle;entryPerimeter=0;" parent="1" source="1rP7fkY4lVl0kBXB7WDJ-249" target="1rP7fkY4lVl0kBXB7WDJ-275" edge="1">
          <mxGeometry width="100" height="100" relative="1" as="geometry">
            <mxPoint x="750.04" y="1260" as="sourcePoint" />
            <mxPoint x="750.04" y="1120" as="targetPoint" />
            <Array as="points">
              <mxPoint x="710" y="1363" />
              <mxPoint x="710" y="1120" />
            </Array>
          </mxGeometry>
        </mxCell>
        <mxCell id="1rP7fkY4lVl0kBXB7WDJ-278" value="Условия скидки" style="ellipse;whiteSpace=wrap;html=1;align=center;" parent="1" vertex="1">
          <mxGeometry x="850" y="510" width="100" height="40" as="geometry" />
        </mxCell>
        <mxCell id="1rP7fkY4lVl0kBXB7WDJ-279" value="Платежи" style="ellipse;whiteSpace=wrap;html=1;align=center;" parent="1" vertex="1">
          <mxGeometry x="950" y="-170" width="100" height="40" as="geometry" />
        </mxCell>
        <mxCell id="1rP7fkY4lVl0kBXB7WDJ-280" value="" style="fontSize=12;html=1;endArrow=ERmany;rounded=0;entryX=0;entryY=0.5;entryDx=0;entryDy=0;exitX=1;exitY=0;exitDx=0;exitDy=0;" parent="1" source="1rP7fkY4lVl0kBXB7WDJ-18" target="1rP7fkY4lVl0kBXB7WDJ-279" edge="1">
          <mxGeometry width="100" height="100" relative="1" as="geometry">
            <mxPoint x="800" y="-20" as="sourcePoint" />
            <mxPoint x="905" y="-60" as="targetPoint" />
          </mxGeometry>
        </mxCell>
        <mxCell id="1rP7fkY4lVl0kBXB7WDJ-281" value="Платежи" style="shape=table;startSize=30;container=1;collapsible=1;childLayout=tableLayout;fixedRows=1;rowLines=0;fontStyle=1;align=center;resizeLast=1;html=1;" parent="1" vertex="1">
          <mxGeometry x="830" y="1405" width="180" height="300" as="geometry" />
        </mxCell>
        <mxCell id="1rP7fkY4lVl0kBXB7WDJ-282" value="" style="shape=tableRow;horizontal=0;startSize=0;swimlaneHead=0;swimlaneBody=0;fillColor=none;collapsible=0;dropTarget=0;points=[[0,0.5],[1,0.5]];portConstraint=eastwest;top=0;left=0;right=0;bottom=1;" parent="1rP7fkY4lVl0kBXB7WDJ-281" vertex="1">
          <mxGeometry y="30" width="180" height="30" as="geometry" />
        </mxCell>
        <mxCell id="1rP7fkY4lVl0kBXB7WDJ-283" value="PK" style="shape=partialRectangle;connectable=0;fillColor=none;top=0;left=0;bottom=0;right=0;fontStyle=1;overflow=hidden;whiteSpace=wrap;html=1;" parent="1rP7fkY4lVl0kBXB7WDJ-282" vertex="1">
          <mxGeometry width="30" height="30" as="geometry">
            <mxRectangle width="30" height="30" as="alternateBounds" />
          </mxGeometry>
        </mxCell>
        <mxCell id="1rP7fkY4lVl0kBXB7WDJ-284" value="payment_id (char)" style="shape=partialRectangle;connectable=0;fillColor=none;top=0;left=0;bottom=0;right=0;align=left;spacingLeft=6;fontStyle=5;overflow=hidden;whiteSpace=wrap;html=1;" parent="1rP7fkY4lVl0kBXB7WDJ-282" vertex="1">
          <mxGeometry x="30" width="150" height="30" as="geometry">
            <mxRectangle width="150" height="30" as="alternateBounds" />
          </mxGeometry>
        </mxCell>
        <mxCell id="1rP7fkY4lVl0kBXB7WDJ-285" value="" style="shape=tableRow;horizontal=0;startSize=0;swimlaneHead=0;swimlaneBody=0;fillColor=none;collapsible=0;dropTarget=0;points=[[0,0.5],[1,0.5]];portConstraint=eastwest;top=0;left=0;right=0;bottom=0;" parent="1rP7fkY4lVl0kBXB7WDJ-281" vertex="1">
          <mxGeometry y="60" width="180" height="30" as="geometry" />
        </mxCell>
        <mxCell id="1rP7fkY4lVl0kBXB7WDJ-286" value="FK" style="shape=partialRectangle;connectable=0;fillColor=none;top=0;left=0;bottom=0;right=0;editable=1;overflow=hidden;whiteSpace=wrap;html=1;" parent="1rP7fkY4lVl0kBXB7WDJ-285" vertex="1">
          <mxGeometry width="30" height="30" as="geometry">
            <mxRectangle width="30" height="30" as="alternateBounds" />
          </mxGeometry>
        </mxCell>
        <mxCell id="1rP7fkY4lVl0kBXB7WDJ-287" value="proc_id (char)" style="shape=partialRectangle;connectable=0;fillColor=none;top=0;left=0;bottom=0;right=0;align=left;spacingLeft=6;overflow=hidden;whiteSpace=wrap;html=1;" parent="1rP7fkY4lVl0kBXB7WDJ-285" vertex="1">
          <mxGeometry x="30" width="150" height="30" as="geometry">
            <mxRectangle width="150" height="30" as="alternateBounds" />
          </mxGeometry>
        </mxCell>
        <mxCell id="1rP7fkY4lVl0kBXB7WDJ-354" value="" style="shape=tableRow;horizontal=0;startSize=0;swimlaneHead=0;swimlaneBody=0;fillColor=none;collapsible=0;dropTarget=0;points=[[0,0.5],[1,0.5]];portConstraint=eastwest;top=0;left=0;right=0;bottom=0;" parent="1rP7fkY4lVl0kBXB7WDJ-281" vertex="1">
          <mxGeometry y="90" width="180" height="30" as="geometry" />
        </mxCell>
        <mxCell id="1rP7fkY4lVl0kBXB7WDJ-355" value="FK" style="shape=partialRectangle;connectable=0;fillColor=none;top=0;left=0;bottom=0;right=0;editable=1;overflow=hidden;whiteSpace=wrap;html=1;" parent="1rP7fkY4lVl0kBXB7WDJ-354" vertex="1">
          <mxGeometry width="30" height="30" as="geometry">
            <mxRectangle width="30" height="30" as="alternateBounds" />
          </mxGeometry>
        </mxCell>
        <mxCell id="1rP7fkY4lVl0kBXB7WDJ-356" value="discount_id (char)" style="shape=partialRectangle;connectable=0;fillColor=none;top=0;left=0;bottom=0;right=0;align=left;spacingLeft=6;overflow=hidden;whiteSpace=wrap;html=1;" parent="1rP7fkY4lVl0kBXB7WDJ-354" vertex="1">
          <mxGeometry x="30" width="150" height="30" as="geometry">
            <mxRectangle width="150" height="30" as="alternateBounds" />
          </mxGeometry>
        </mxCell>
        <mxCell id="1rP7fkY4lVl0kBXB7WDJ-357" value="" style="shape=tableRow;horizontal=0;startSize=0;swimlaneHead=0;swimlaneBody=0;fillColor=none;collapsible=0;dropTarget=0;points=[[0,0.5],[1,0.5]];portConstraint=eastwest;top=0;left=0;right=0;bottom=0;" parent="1rP7fkY4lVl0kBXB7WDJ-281" vertex="1">
          <mxGeometry y="120" width="180" height="30" as="geometry" />
        </mxCell>
        <mxCell id="1rP7fkY4lVl0kBXB7WDJ-358" value="FK" style="shape=partialRectangle;connectable=0;fillColor=none;top=0;left=0;bottom=0;right=0;editable=1;overflow=hidden;whiteSpace=wrap;html=1;" parent="1rP7fkY4lVl0kBXB7WDJ-357" vertex="1">
          <mxGeometry width="30" height="30" as="geometry">
            <mxRectangle width="30" height="30" as="alternateBounds" />
          </mxGeometry>
        </mxCell>
        <mxCell id="1rP7fkY4lVl0kBXB7WDJ-359" value="cashback_id (char)" style="shape=partialRectangle;connectable=0;fillColor=none;top=0;left=0;bottom=0;right=0;align=left;spacingLeft=6;overflow=hidden;whiteSpace=wrap;html=1;" parent="1rP7fkY4lVl0kBXB7WDJ-357" vertex="1">
          <mxGeometry x="30" width="150" height="30" as="geometry">
            <mxRectangle width="150" height="30" as="alternateBounds" />
          </mxGeometry>
        </mxCell>
        <mxCell id="1rP7fkY4lVl0kBXB7WDJ-289" value="" style="shape=tableRow;horizontal=0;startSize=0;swimlaneHead=0;swimlaneBody=0;fillColor=none;collapsible=0;dropTarget=0;points=[[0,0.5],[1,0.5]];portConstraint=eastwest;top=0;left=0;right=0;bottom=0;" parent="1rP7fkY4lVl0kBXB7WDJ-281" vertex="1">
          <mxGeometry y="150" width="180" height="30" as="geometry" />
        </mxCell>
        <mxCell id="1rP7fkY4lVl0kBXB7WDJ-290" value="" style="shape=partialRectangle;connectable=0;fillColor=none;top=0;left=0;bottom=0;right=0;editable=1;overflow=hidden;whiteSpace=wrap;html=1;" parent="1rP7fkY4lVl0kBXB7WDJ-289" vertex="1">
          <mxGeometry width="30" height="30" as="geometry">
            <mxRectangle width="30" height="30" as="alternateBounds" />
          </mxGeometry>
        </mxCell>
        <mxCell id="1rP7fkY4lVl0kBXB7WDJ-291" value="request_datetime (datetime)" style="shape=partialRectangle;connectable=0;fillColor=none;top=0;left=0;bottom=0;right=0;align=left;spacingLeft=6;overflow=hidden;whiteSpace=wrap;html=1;" parent="1rP7fkY4lVl0kBXB7WDJ-289" vertex="1">
          <mxGeometry x="30" width="150" height="30" as="geometry">
            <mxRectangle width="150" height="30" as="alternateBounds" />
          </mxGeometry>
        </mxCell>
        <mxCell id="1rP7fkY4lVl0kBXB7WDJ-292" value="" style="shape=tableRow;horizontal=0;startSize=0;swimlaneHead=0;swimlaneBody=0;fillColor=none;collapsible=0;dropTarget=0;points=[[0,0.5],[1,0.5]];portConstraint=eastwest;top=0;left=0;right=0;bottom=0;" parent="1rP7fkY4lVl0kBXB7WDJ-281" vertex="1">
          <mxGeometry y="180" width="180" height="30" as="geometry" />
        </mxCell>
        <mxCell id="1rP7fkY4lVl0kBXB7WDJ-293" value="" style="shape=partialRectangle;connectable=0;fillColor=none;top=0;left=0;bottom=0;right=0;editable=1;overflow=hidden;whiteSpace=wrap;html=1;" parent="1rP7fkY4lVl0kBXB7WDJ-292" vertex="1">
          <mxGeometry width="30" height="30" as="geometry">
            <mxRectangle width="30" height="30" as="alternateBounds" />
          </mxGeometry>
        </mxCell>
        <mxCell id="1rP7fkY4lVl0kBXB7WDJ-294" value="response_datetime (datetime)" style="shape=partialRectangle;connectable=0;fillColor=none;top=0;left=0;bottom=0;right=0;align=left;spacingLeft=6;overflow=hidden;whiteSpace=wrap;html=1;" parent="1rP7fkY4lVl0kBXB7WDJ-292" vertex="1">
          <mxGeometry x="30" width="150" height="30" as="geometry">
            <mxRectangle width="150" height="30" as="alternateBounds" />
          </mxGeometry>
        </mxCell>
        <mxCell id="1rP7fkY4lVl0kBXB7WDJ-295" value="" style="shape=tableRow;horizontal=0;startSize=0;swimlaneHead=0;swimlaneBody=0;fillColor=none;collapsible=0;dropTarget=0;points=[[0,0.5],[1,0.5]];portConstraint=eastwest;top=0;left=0;right=0;bottom=0;" parent="1rP7fkY4lVl0kBXB7WDJ-281" vertex="1">
          <mxGeometry y="210" width="180" height="30" as="geometry" />
        </mxCell>
        <mxCell id="1rP7fkY4lVl0kBXB7WDJ-296" value="" style="shape=partialRectangle;connectable=0;fillColor=none;top=0;left=0;bottom=0;right=0;editable=1;overflow=hidden;whiteSpace=wrap;html=1;" parent="1rP7fkY4lVl0kBXB7WDJ-295" vertex="1">
          <mxGeometry width="30" height="30" as="geometry">
            <mxRectangle width="30" height="30" as="alternateBounds" />
          </mxGeometry>
        </mxCell>
        <mxCell id="1rP7fkY4lVl0kBXB7WDJ-297" value="request_body (json)" style="shape=partialRectangle;connectable=0;fillColor=none;top=0;left=0;bottom=0;right=0;align=left;spacingLeft=6;overflow=hidden;whiteSpace=wrap;html=1;" parent="1rP7fkY4lVl0kBXB7WDJ-295" vertex="1">
          <mxGeometry x="30" width="150" height="30" as="geometry">
            <mxRectangle width="150" height="30" as="alternateBounds" />
          </mxGeometry>
        </mxCell>
        <mxCell id="1rP7fkY4lVl0kBXB7WDJ-408" value="" style="shape=tableRow;horizontal=0;startSize=0;swimlaneHead=0;swimlaneBody=0;fillColor=none;collapsible=0;dropTarget=0;points=[[0,0.5],[1,0.5]];portConstraint=eastwest;top=0;left=0;right=0;bottom=0;" parent="1rP7fkY4lVl0kBXB7WDJ-281" vertex="1">
          <mxGeometry y="240" width="180" height="30" as="geometry" />
        </mxCell>
        <mxCell id="1rP7fkY4lVl0kBXB7WDJ-409" value="" style="shape=partialRectangle;connectable=0;fillColor=none;top=0;left=0;bottom=0;right=0;editable=1;overflow=hidden;whiteSpace=wrap;html=1;" parent="1rP7fkY4lVl0kBXB7WDJ-408" vertex="1">
          <mxGeometry width="30" height="30" as="geometry">
            <mxRectangle width="30" height="30" as="alternateBounds" />
          </mxGeometry>
        </mxCell>
        <mxCell id="1rP7fkY4lVl0kBXB7WDJ-410" value="response_body (json)" style="shape=partialRectangle;connectable=0;fillColor=none;top=0;left=0;bottom=0;right=0;align=left;spacingLeft=6;overflow=hidden;whiteSpace=wrap;html=1;" parent="1rP7fkY4lVl0kBXB7WDJ-408" vertex="1">
          <mxGeometry x="30" width="150" height="30" as="geometry">
            <mxRectangle width="150" height="30" as="alternateBounds" />
          </mxGeometry>
        </mxCell>
        <mxCell id="1rP7fkY4lVl0kBXB7WDJ-298" value="" style="shape=tableRow;horizontal=0;startSize=0;swimlaneHead=0;swimlaneBody=0;fillColor=none;collapsible=0;dropTarget=0;points=[[0,0.5],[1,0.5]];portConstraint=eastwest;top=0;left=0;right=0;bottom=0;" parent="1rP7fkY4lVl0kBXB7WDJ-281" vertex="1">
          <mxGeometry y="270" width="180" height="30" as="geometry" />
        </mxCell>
        <mxCell id="1rP7fkY4lVl0kBXB7WDJ-299" value="" style="shape=partialRectangle;connectable=0;fillColor=none;top=0;left=0;bottom=0;right=0;editable=1;overflow=hidden;whiteSpace=wrap;html=1;" parent="1rP7fkY4lVl0kBXB7WDJ-298" vertex="1">
          <mxGeometry width="30" height="30" as="geometry">
            <mxRectangle width="30" height="30" as="alternateBounds" />
          </mxGeometry>
        </mxCell>
        <mxCell id="1rP7fkY4lVl0kBXB7WDJ-300" value="Статус платежа (boolean)" style="shape=partialRectangle;connectable=0;fillColor=none;top=0;left=0;bottom=0;right=0;align=left;spacingLeft=6;overflow=hidden;whiteSpace=wrap;html=1;" parent="1rP7fkY4lVl0kBXB7WDJ-298" vertex="1">
          <mxGeometry x="30" width="150" height="30" as="geometry">
            <mxRectangle width="150" height="30" as="alternateBounds" />
          </mxGeometry>
        </mxCell>
        <mxCell id="1rP7fkY4lVl0kBXB7WDJ-301" value="" style="fontSize=12;html=1;endArrow=ERmany;rounded=0;entryX=0;entryY=0.5;entryDx=0;entryDy=0;exitX=0.994;exitY=0.487;exitDx=0;exitDy=0;edgeStyle=orthogonalEdgeStyle;exitPerimeter=0;" parent="1" source="1rP7fkY4lVl0kBXB7WDJ-154" target="1rP7fkY4lVl0kBXB7WDJ-285" edge="1">
          <mxGeometry width="100" height="100" relative="1" as="geometry">
            <mxPoint x="840" y="1275" as="sourcePoint" />
            <mxPoint x="840" y="1135" as="targetPoint" />
            <Array as="points">
              <mxPoint x="650" y="1065" />
              <mxPoint x="760" y="1065" />
              <mxPoint x="760" y="1480" />
            </Array>
          </mxGeometry>
        </mxCell>
        <mxCell id="1rP7fkY4lVl0kBXB7WDJ-302" value="Размер скидки" style="ellipse;whiteSpace=wrap;html=1;align=center;" parent="1" vertex="1">
          <mxGeometry x="850" y="570" width="100" height="40" as="geometry" />
        </mxCell>
        <mxCell id="1rP7fkY4lVl0kBXB7WDJ-303" value="Размер кэшбэка" style="ellipse;whiteSpace=wrap;html=1;align=center;" parent="1" vertex="1">
          <mxGeometry x="850" y="750" width="100" height="40" as="geometry" />
        </mxCell>
        <mxCell id="1rP7fkY4lVl0kBXB7WDJ-304" value="check_id" style="ellipse;whiteSpace=wrap;html=1;align=center;" parent="1" vertex="1">
          <mxGeometry x="850" y="460" width="100" height="40" as="geometry" />
        </mxCell>
        <mxCell id="1rP7fkY4lVl0kBXB7WDJ-310" value="Скидка" style="shape=table;startSize=30;container=1;collapsible=1;childLayout=tableLayout;fixedRows=1;rowLines=0;fontStyle=1;align=center;resizeLast=1;html=1;" parent="1" vertex="1">
          <mxGeometry x="831" y="1760" width="180" height="150" as="geometry" />
        </mxCell>
        <mxCell id="1rP7fkY4lVl0kBXB7WDJ-311" value="" style="shape=tableRow;horizontal=0;startSize=0;swimlaneHead=0;swimlaneBody=0;fillColor=none;collapsible=0;dropTarget=0;points=[[0,0.5],[1,0.5]];portConstraint=eastwest;top=0;left=0;right=0;bottom=1;" parent="1rP7fkY4lVl0kBXB7WDJ-310" vertex="1">
          <mxGeometry y="30" width="180" height="30" as="geometry" />
        </mxCell>
        <mxCell id="1rP7fkY4lVl0kBXB7WDJ-312" value="PK" style="shape=partialRectangle;connectable=0;fillColor=none;top=0;left=0;bottom=0;right=0;fontStyle=1;overflow=hidden;whiteSpace=wrap;html=1;" parent="1rP7fkY4lVl0kBXB7WDJ-311" vertex="1">
          <mxGeometry width="30" height="30" as="geometry">
            <mxRectangle width="30" height="30" as="alternateBounds" />
          </mxGeometry>
        </mxCell>
        <mxCell id="1rP7fkY4lVl0kBXB7WDJ-313" value="discount_id (char)" style="shape=partialRectangle;connectable=0;fillColor=none;top=0;left=0;bottom=0;right=0;align=left;spacingLeft=6;fontStyle=5;overflow=hidden;whiteSpace=wrap;html=1;" parent="1rP7fkY4lVl0kBXB7WDJ-311" vertex="1">
          <mxGeometry x="30" width="150" height="30" as="geometry">
            <mxRectangle width="150" height="30" as="alternateBounds" />
          </mxGeometry>
        </mxCell>
        <mxCell id="1rP7fkY4lVl0kBXB7WDJ-314" value="" style="shape=tableRow;horizontal=0;startSize=0;swimlaneHead=0;swimlaneBody=0;fillColor=none;collapsible=0;dropTarget=0;points=[[0,0.5],[1,0.5]];portConstraint=eastwest;top=0;left=0;right=0;bottom=0;" parent="1rP7fkY4lVl0kBXB7WDJ-310" vertex="1">
          <mxGeometry y="60" width="180" height="30" as="geometry" />
        </mxCell>
        <mxCell id="1rP7fkY4lVl0kBXB7WDJ-315" value="" style="shape=partialRectangle;connectable=0;fillColor=none;top=0;left=0;bottom=0;right=0;editable=1;overflow=hidden;whiteSpace=wrap;html=1;" parent="1rP7fkY4lVl0kBXB7WDJ-314" vertex="1">
          <mxGeometry width="30" height="30" as="geometry">
            <mxRectangle width="30" height="30" as="alternateBounds" />
          </mxGeometry>
        </mxCell>
        <mxCell id="1rP7fkY4lVl0kBXB7WDJ-316" value="Наименование скидки (String)" style="shape=partialRectangle;connectable=0;fillColor=none;top=0;left=0;bottom=0;right=0;align=left;spacingLeft=6;overflow=hidden;whiteSpace=wrap;html=1;" parent="1rP7fkY4lVl0kBXB7WDJ-314" vertex="1">
          <mxGeometry x="30" width="150" height="30" as="geometry">
            <mxRectangle width="150" height="30" as="alternateBounds" />
          </mxGeometry>
        </mxCell>
        <mxCell id="1rP7fkY4lVl0kBXB7WDJ-317" value="" style="shape=tableRow;horizontal=0;startSize=0;swimlaneHead=0;swimlaneBody=0;fillColor=none;collapsible=0;dropTarget=0;points=[[0,0.5],[1,0.5]];portConstraint=eastwest;top=0;left=0;right=0;bottom=0;" parent="1rP7fkY4lVl0kBXB7WDJ-310" vertex="1">
          <mxGeometry y="90" width="180" height="30" as="geometry" />
        </mxCell>
        <mxCell id="1rP7fkY4lVl0kBXB7WDJ-318" value="" style="shape=partialRectangle;connectable=0;fillColor=none;top=0;left=0;bottom=0;right=0;editable=1;overflow=hidden;whiteSpace=wrap;html=1;" parent="1rP7fkY4lVl0kBXB7WDJ-317" vertex="1">
          <mxGeometry width="30" height="30" as="geometry">
            <mxRectangle width="30" height="30" as="alternateBounds" />
          </mxGeometry>
        </mxCell>
        <mxCell id="1rP7fkY4lVl0kBXB7WDJ-319" value="Размер скидки (int)" style="shape=partialRectangle;connectable=0;fillColor=none;top=0;left=0;bottom=0;right=0;align=left;spacingLeft=6;overflow=hidden;whiteSpace=wrap;html=1;" parent="1rP7fkY4lVl0kBXB7WDJ-317" vertex="1">
          <mxGeometry x="30" width="150" height="30" as="geometry">
            <mxRectangle width="150" height="30" as="alternateBounds" />
          </mxGeometry>
        </mxCell>
        <mxCell id="1rP7fkY4lVl0kBXB7WDJ-320" value="" style="shape=tableRow;horizontal=0;startSize=0;swimlaneHead=0;swimlaneBody=0;fillColor=none;collapsible=0;dropTarget=0;points=[[0,0.5],[1,0.5]];portConstraint=eastwest;top=0;left=0;right=0;bottom=0;" parent="1rP7fkY4lVl0kBXB7WDJ-310" vertex="1">
          <mxGeometry y="120" width="180" height="30" as="geometry" />
        </mxCell>
        <mxCell id="1rP7fkY4lVl0kBXB7WDJ-321" value="" style="shape=partialRectangle;connectable=0;fillColor=none;top=0;left=0;bottom=0;right=0;editable=1;overflow=hidden;whiteSpace=wrap;html=1;" parent="1rP7fkY4lVl0kBXB7WDJ-320" vertex="1">
          <mxGeometry width="30" height="30" as="geometry">
            <mxRectangle width="30" height="30" as="alternateBounds" />
          </mxGeometry>
        </mxCell>
        <mxCell id="1rP7fkY4lVl0kBXB7WDJ-322" value="Условия скидки (json)" style="shape=partialRectangle;connectable=0;fillColor=none;top=0;left=0;bottom=0;right=0;align=left;spacingLeft=6;overflow=hidden;whiteSpace=wrap;html=1;" parent="1rP7fkY4lVl0kBXB7WDJ-320" vertex="1">
          <mxGeometry x="30" width="150" height="30" as="geometry">
            <mxRectangle width="150" height="30" as="alternateBounds" />
          </mxGeometry>
        </mxCell>
        <mxCell id="1rP7fkY4lVl0kBXB7WDJ-332" value="Кэшбэк" style="shape=table;startSize=30;container=1;collapsible=1;childLayout=tableLayout;fixedRows=1;rowLines=0;fontStyle=1;align=center;resizeLast=1;html=1;" parent="1" vertex="1">
          <mxGeometry x="830" y="1958" width="180" height="150" as="geometry" />
        </mxCell>
        <mxCell id="1rP7fkY4lVl0kBXB7WDJ-333" value="" style="shape=tableRow;horizontal=0;startSize=0;swimlaneHead=0;swimlaneBody=0;fillColor=none;collapsible=0;dropTarget=0;points=[[0,0.5],[1,0.5]];portConstraint=eastwest;top=0;left=0;right=0;bottom=1;" parent="1rP7fkY4lVl0kBXB7WDJ-332" vertex="1">
          <mxGeometry y="30" width="180" height="30" as="geometry" />
        </mxCell>
        <mxCell id="1rP7fkY4lVl0kBXB7WDJ-334" value="PK" style="shape=partialRectangle;connectable=0;fillColor=none;top=0;left=0;bottom=0;right=0;fontStyle=1;overflow=hidden;whiteSpace=wrap;html=1;" parent="1rP7fkY4lVl0kBXB7WDJ-333" vertex="1">
          <mxGeometry width="30" height="30" as="geometry">
            <mxRectangle width="30" height="30" as="alternateBounds" />
          </mxGeometry>
        </mxCell>
        <mxCell id="1rP7fkY4lVl0kBXB7WDJ-335" value="cashback_id (char)" style="shape=partialRectangle;connectable=0;fillColor=none;top=0;left=0;bottom=0;right=0;align=left;spacingLeft=6;fontStyle=5;overflow=hidden;whiteSpace=wrap;html=1;" parent="1rP7fkY4lVl0kBXB7WDJ-333" vertex="1">
          <mxGeometry x="30" width="150" height="30" as="geometry">
            <mxRectangle width="150" height="30" as="alternateBounds" />
          </mxGeometry>
        </mxCell>
        <mxCell id="1rP7fkY4lVl0kBXB7WDJ-336" value="" style="shape=tableRow;horizontal=0;startSize=0;swimlaneHead=0;swimlaneBody=0;fillColor=none;collapsible=0;dropTarget=0;points=[[0,0.5],[1,0.5]];portConstraint=eastwest;top=0;left=0;right=0;bottom=0;" parent="1rP7fkY4lVl0kBXB7WDJ-332" vertex="1">
          <mxGeometry y="60" width="180" height="30" as="geometry" />
        </mxCell>
        <mxCell id="1rP7fkY4lVl0kBXB7WDJ-337" value="" style="shape=partialRectangle;connectable=0;fillColor=none;top=0;left=0;bottom=0;right=0;editable=1;overflow=hidden;whiteSpace=wrap;html=1;" parent="1rP7fkY4lVl0kBXB7WDJ-336" vertex="1">
          <mxGeometry width="30" height="30" as="geometry">
            <mxRectangle width="30" height="30" as="alternateBounds" />
          </mxGeometry>
        </mxCell>
        <mxCell id="1rP7fkY4lVl0kBXB7WDJ-338" value="Наименование кэшбэка (String)" style="shape=partialRectangle;connectable=0;fillColor=none;top=0;left=0;bottom=0;right=0;align=left;spacingLeft=6;overflow=hidden;whiteSpace=wrap;html=1;" parent="1rP7fkY4lVl0kBXB7WDJ-336" vertex="1">
          <mxGeometry x="30" width="150" height="30" as="geometry">
            <mxRectangle width="150" height="30" as="alternateBounds" />
          </mxGeometry>
        </mxCell>
        <mxCell id="1rP7fkY4lVl0kBXB7WDJ-339" value="" style="shape=tableRow;horizontal=0;startSize=0;swimlaneHead=0;swimlaneBody=0;fillColor=none;collapsible=0;dropTarget=0;points=[[0,0.5],[1,0.5]];portConstraint=eastwest;top=0;left=0;right=0;bottom=0;" parent="1rP7fkY4lVl0kBXB7WDJ-332" vertex="1">
          <mxGeometry y="90" width="180" height="30" as="geometry" />
        </mxCell>
        <mxCell id="1rP7fkY4lVl0kBXB7WDJ-340" value="" style="shape=partialRectangle;connectable=0;fillColor=none;top=0;left=0;bottom=0;right=0;editable=1;overflow=hidden;whiteSpace=wrap;html=1;" parent="1rP7fkY4lVl0kBXB7WDJ-339" vertex="1">
          <mxGeometry width="30" height="30" as="geometry">
            <mxRectangle width="30" height="30" as="alternateBounds" />
          </mxGeometry>
        </mxCell>
        <mxCell id="1rP7fkY4lVl0kBXB7WDJ-341" value="Размер кэшбэка (int)" style="shape=partialRectangle;connectable=0;fillColor=none;top=0;left=0;bottom=0;right=0;align=left;spacingLeft=6;overflow=hidden;whiteSpace=wrap;html=1;" parent="1rP7fkY4lVl0kBXB7WDJ-339" vertex="1">
          <mxGeometry x="30" width="150" height="30" as="geometry">
            <mxRectangle width="150" height="30" as="alternateBounds" />
          </mxGeometry>
        </mxCell>
        <mxCell id="1rP7fkY4lVl0kBXB7WDJ-342" value="" style="shape=tableRow;horizontal=0;startSize=0;swimlaneHead=0;swimlaneBody=0;fillColor=none;collapsible=0;dropTarget=0;points=[[0,0.5],[1,0.5]];portConstraint=eastwest;top=0;left=0;right=0;bottom=0;" parent="1rP7fkY4lVl0kBXB7WDJ-332" vertex="1">
          <mxGeometry y="120" width="180" height="30" as="geometry" />
        </mxCell>
        <mxCell id="1rP7fkY4lVl0kBXB7WDJ-343" value="" style="shape=partialRectangle;connectable=0;fillColor=none;top=0;left=0;bottom=0;right=0;editable=1;overflow=hidden;whiteSpace=wrap;html=1;" parent="1rP7fkY4lVl0kBXB7WDJ-342" vertex="1">
          <mxGeometry width="30" height="30" as="geometry">
            <mxRectangle width="30" height="30" as="alternateBounds" />
          </mxGeometry>
        </mxCell>
        <mxCell id="1rP7fkY4lVl0kBXB7WDJ-344" value="Условия кэшбэка (json)" style="shape=partialRectangle;connectable=0;fillColor=none;top=0;left=0;bottom=0;right=0;align=left;spacingLeft=6;overflow=hidden;whiteSpace=wrap;html=1;" parent="1rP7fkY4lVl0kBXB7WDJ-342" vertex="1">
          <mxGeometry x="30" width="150" height="30" as="geometry">
            <mxRectangle width="150" height="30" as="alternateBounds" />
          </mxGeometry>
        </mxCell>
        <mxCell id="1rP7fkY4lVl0kBXB7WDJ-353" value="Программа кэшбэка" style="whiteSpace=wrap;html=1;align=center;" parent="1" vertex="1">
          <mxGeometry x="690" y="640" width="100" height="40" as="geometry" />
        </mxCell>
        <mxCell id="1rP7fkY4lVl0kBXB7WDJ-361" value="" style="fontSize=12;html=1;endArrow=ERmany;rounded=0;entryX=0.011;entryY=0.352;entryDx=0;entryDy=0;exitX=0;exitY=0.5;exitDx=0;exitDy=0;edgeStyle=orthogonalEdgeStyle;entryPerimeter=0;" parent="1" source="1rP7fkY4lVl0kBXB7WDJ-311" target="1rP7fkY4lVl0kBXB7WDJ-354" edge="1">
          <mxGeometry width="100" height="100" relative="1" as="geometry">
            <mxPoint x="720" y="1728.04" as="sourcePoint" />
            <mxPoint x="720" y="1518.04" as="targetPoint" />
            <Array as="points">
              <mxPoint x="760" y="1805" />
              <mxPoint x="760" y="1506" />
              <mxPoint x="832" y="1506" />
            </Array>
          </mxGeometry>
        </mxCell>
        <mxCell id="1rP7fkY4lVl0kBXB7WDJ-362" value="" style="fontSize=12;html=1;endArrow=ERmany;rounded=0;entryX=0;entryY=0.5;entryDx=0;entryDy=0;exitX=0;exitY=0.5;exitDx=0;exitDy=0;edgeStyle=orthogonalEdgeStyle;" parent="1" source="1rP7fkY4lVl0kBXB7WDJ-333" target="1rP7fkY4lVl0kBXB7WDJ-357" edge="1">
          <mxGeometry width="100" height="100" relative="1" as="geometry">
            <mxPoint x="827.95" y="1966" as="sourcePoint" />
            <mxPoint x="829.95" y="1725" as="targetPoint" />
            <Array as="points">
              <mxPoint x="800" y="2003" />
              <mxPoint x="800" y="1540" />
            </Array>
          </mxGeometry>
        </mxCell>
        <mxCell id="1rP7fkY4lVl0kBXB7WDJ-363" value="Условия кэшбэка" style="ellipse;whiteSpace=wrap;html=1;align=center;" parent="1" vertex="1">
          <mxGeometry x="850" y="690" width="100" height="40" as="geometry" />
        </mxCell>
        <mxCell id="1rP7fkY4lVl0kBXB7WDJ-364" value="check_id" style="ellipse;whiteSpace=wrap;html=1;align=center;" parent="1" vertex="1">
          <mxGeometry x="850" y="630" width="100" height="40" as="geometry" />
        </mxCell>
        <mxCell id="1rP7fkY4lVl0kBXB7WDJ-366" value="" style="fontSize=12;html=1;endArrow=ERmany;rounded=0;entryX=0;entryY=0.5;entryDx=0;entryDy=0;exitX=1;exitY=0;exitDx=0;exitDy=0;" parent="1" source="1rP7fkY4lVl0kBXB7WDJ-21" target="1rP7fkY4lVl0kBXB7WDJ-304" edge="1">
          <mxGeometry width="100" height="100" relative="1" as="geometry">
            <mxPoint x="746" y="607" as="sourcePoint" />
            <mxPoint x="815" y="650" as="targetPoint" />
          </mxGeometry>
        </mxCell>
        <mxCell id="1rP7fkY4lVl0kBXB7WDJ-367" value="" style="fontSize=12;html=1;endArrow=ERmany;rounded=0;entryX=0;entryY=0.5;entryDx=0;entryDy=0;exitX=1;exitY=0.25;exitDx=0;exitDy=0;" parent="1" source="1rP7fkY4lVl0kBXB7WDJ-21" target="1rP7fkY4lVl0kBXB7WDJ-278" edge="1">
          <mxGeometry width="100" height="100" relative="1" as="geometry">
            <mxPoint x="746" y="607" as="sourcePoint" />
            <mxPoint x="815" y="650" as="targetPoint" />
          </mxGeometry>
        </mxCell>
        <mxCell id="1rP7fkY4lVl0kBXB7WDJ-368" value="" style="fontSize=12;html=1;endArrow=ERmany;rounded=0;entryX=0;entryY=0.5;entryDx=0;entryDy=0;exitX=1;exitY=0.5;exitDx=0;exitDy=0;" parent="1" source="1rP7fkY4lVl0kBXB7WDJ-21" target="1rP7fkY4lVl0kBXB7WDJ-302" edge="1">
          <mxGeometry width="100" height="100" relative="1" as="geometry">
            <mxPoint x="746" y="597" as="sourcePoint" />
            <mxPoint x="815" y="640" as="targetPoint" />
          </mxGeometry>
        </mxCell>
        <mxCell id="1rP7fkY4lVl0kBXB7WDJ-369" value="" style="fontSize=12;html=1;endArrow=ERmany;rounded=0;entryX=0;entryY=0.5;entryDx=0;entryDy=0;exitX=1;exitY=0.25;exitDx=0;exitDy=0;" parent="1" source="1rP7fkY4lVl0kBXB7WDJ-353" target="1rP7fkY4lVl0kBXB7WDJ-364" edge="1">
          <mxGeometry width="100" height="100" relative="1" as="geometry">
            <mxPoint x="760" y="607" as="sourcePoint" />
            <mxPoint x="829" y="650" as="targetPoint" />
          </mxGeometry>
        </mxCell>
        <mxCell id="1rP7fkY4lVl0kBXB7WDJ-370" value="" style="fontSize=12;html=1;endArrow=ERmany;rounded=0;entryX=0;entryY=0.5;entryDx=0;entryDy=0;exitX=1;exitY=0.5;exitDx=0;exitDy=0;" parent="1" source="1rP7fkY4lVl0kBXB7WDJ-353" target="1rP7fkY4lVl0kBXB7WDJ-363" edge="1">
          <mxGeometry width="100" height="100" relative="1" as="geometry">
            <mxPoint x="746" y="680" as="sourcePoint" />
            <mxPoint x="815" y="723" as="targetPoint" />
          </mxGeometry>
        </mxCell>
        <mxCell id="1rP7fkY4lVl0kBXB7WDJ-371" value="" style="fontSize=12;html=1;endArrow=ERmany;rounded=0;entryX=0.039;entryY=0.292;entryDx=0;entryDy=0;exitX=1;exitY=1;exitDx=0;exitDy=0;entryPerimeter=0;" parent="1" source="1rP7fkY4lVl0kBXB7WDJ-353" target="1rP7fkY4lVl0kBXB7WDJ-303" edge="1">
          <mxGeometry width="100" height="100" relative="1" as="geometry">
            <mxPoint x="760" y="690" as="sourcePoint" />
            <mxPoint x="829" y="733" as="targetPoint" />
          </mxGeometry>
        </mxCell>
        <mxCell id="1rP7fkY4lVl0kBXB7WDJ-372" style="edgeStyle=orthogonalEdgeStyle;rounded=0;orthogonalLoop=1;jettySize=auto;html=1;exitX=0.983;exitY=0.504;exitDx=0;exitDy=0;entryX=0;entryY=0.5;entryDx=0;entryDy=0;exitPerimeter=0;" parent="1" source="1rP7fkY4lVl0kBXB7WDJ-15" target="1rP7fkY4lVl0kBXB7WDJ-20" edge="1">
          <mxGeometry relative="1" as="geometry">
            <mxPoint x="600.04" y="400" as="sourcePoint" />
            <mxPoint x="825.04" y="411" as="targetPoint" />
            <Array as="points">
              <mxPoint x="600" y="425" />
              <mxPoint x="600" y="450" />
            </Array>
          </mxGeometry>
        </mxCell>
        <mxCell id="1rP7fkY4lVl0kBXB7WDJ-373" style="edgeStyle=orthogonalEdgeStyle;rounded=0;orthogonalLoop=1;jettySize=auto;html=1;exitX=0.502;exitY=0.971;exitDx=0;exitDy=0;entryX=0.478;entryY=-0.015;entryDx=0;entryDy=0;exitPerimeter=0;entryPerimeter=0;" parent="1" source="1rP7fkY4lVl0kBXB7WDJ-15" target="1rP7fkY4lVl0kBXB7WDJ-21" edge="1">
          <mxGeometry relative="1" as="geometry">
            <mxPoint x="465" y="480" as="sourcePoint" />
            <mxPoint x="690" y="491" as="targetPoint" />
            <Array as="points">
              <mxPoint x="465" y="491" />
              <mxPoint x="738" y="491" />
            </Array>
          </mxGeometry>
        </mxCell>
        <mxCell id="1rP7fkY4lVl0kBXB7WDJ-374" style="edgeStyle=orthogonalEdgeStyle;rounded=0;orthogonalLoop=1;jettySize=auto;html=1;entryX=0.5;entryY=0;entryDx=0;entryDy=0;exitX=0.5;exitY=0.98;exitDx=0;exitDy=0;exitPerimeter=0;" parent="1" source="1rP7fkY4lVl0kBXB7WDJ-15" target="1rP7fkY4lVl0kBXB7WDJ-353" edge="1">
          <mxGeometry relative="1" as="geometry">
            <mxPoint x="610" y="490" as="sourcePoint" />
            <mxPoint x="835" y="590" as="targetPoint" />
            <Array as="points">
              <mxPoint x="465" y="490" />
              <mxPoint x="630" y="490" />
              <mxPoint x="630" y="620" />
              <mxPoint x="740" y="620" />
            </Array>
          </mxGeometry>
        </mxCell>
        <mxCell id="1rP7fkY4lVl0kBXB7WDJ-375" style="edgeStyle=orthogonalEdgeStyle;rounded=0;orthogonalLoop=1;jettySize=auto;html=1;exitX=0.499;exitY=0.987;exitDx=0;exitDy=0;entryX=0.5;entryY=0;entryDx=0;entryDy=0;exitPerimeter=0;" parent="1" source="1rP7fkY4lVl0kBXB7WDJ-16" target="1rP7fkY4lVl0kBXB7WDJ-22" edge="1">
          <mxGeometry relative="1" as="geometry">
            <mxPoint x="467.5" y="618.97" as="sourcePoint" />
            <mxPoint x="692.5" y="629.97" as="targetPoint" />
            <Array as="points">
              <mxPoint x="466" y="630" />
              <mxPoint x="600" y="630" />
              <mxPoint x="600" y="720" />
              <mxPoint x="740" y="720" />
            </Array>
          </mxGeometry>
        </mxCell>
        <mxCell id="1rP7fkY4lVl0kBXB7WDJ-376" style="edgeStyle=orthogonalEdgeStyle;rounded=0;orthogonalLoop=1;jettySize=auto;html=1;exitX=0.504;exitY=0.984;exitDx=0;exitDy=0;entryX=0;entryY=0.5;entryDx=0;entryDy=0;exitPerimeter=0;" parent="1" source="1rP7fkY4lVl0kBXB7WDJ-17" target="1rP7fkY4lVl0kBXB7WDJ-22" edge="1">
          <mxGeometry relative="1" as="geometry">
            <mxPoint x="467.5" y="790" as="sourcePoint" />
            <mxPoint x="692.5" y="801" as="targetPoint" />
            <Array as="points">
              <mxPoint x="466" y="760" />
            </Array>
          </mxGeometry>
        </mxCell>
        <mxCell id="1rP7fkY4lVl0kBXB7WDJ-378" style="edgeStyle=orthogonalEdgeStyle;rounded=0;orthogonalLoop=1;jettySize=auto;html=1;exitX=0.992;exitY=0.505;exitDx=0;exitDy=0;entryX=0;entryY=0.75;entryDx=0;entryDy=0;exitPerimeter=0;" parent="1" source="1rP7fkY4lVl0kBXB7WDJ-17" target="1rP7fkY4lVl0kBXB7WDJ-20" edge="1">
          <mxGeometry relative="1" as="geometry">
            <mxPoint x="460" y="449" as="sourcePoint" />
            <mxPoint x="685" y="460" as="targetPoint" />
            <Array as="points">
              <mxPoint x="560" y="696" />
              <mxPoint x="560" y="460" />
            </Array>
          </mxGeometry>
        </mxCell>
        <mxCell id="1rP7fkY4lVl0kBXB7WDJ-379" value="Баланс кэшбэка" style="ellipse;whiteSpace=wrap;html=1;align=center;" parent="1" vertex="1">
          <mxGeometry x="20" y="205" width="100" height="40" as="geometry" />
        </mxCell>
        <mxCell id="1rP7fkY4lVl0kBXB7WDJ-380" value="" style="fontSize=12;html=1;endArrow=ERmany;rounded=0;entryX=0.956;entryY=0.268;entryDx=0;entryDy=0;entryPerimeter=0;exitX=0;exitY=1;exitDx=0;exitDy=0;" parent="1" source="1rP7fkY4lVl0kBXB7WDJ-11" target="1rP7fkY4lVl0kBXB7WDJ-379" edge="1">
          <mxGeometry width="100" height="100" relative="1" as="geometry">
            <mxPoint x="190" y="297" as="sourcePoint" />
            <mxPoint x="140" y="223" as="targetPoint" />
          </mxGeometry>
        </mxCell>
        <mxCell id="1rP7fkY4lVl0kBXB7WDJ-381" value="id отчета" style="ellipse;whiteSpace=wrap;html=1;align=center;" parent="1" vertex="1">
          <mxGeometry x="820" y="800" width="100" height="40" as="geometry" />
        </mxCell>
        <mxCell id="1rP7fkY4lVl0kBXB7WDJ-382" value="Дата формирования отчета" style="ellipse;whiteSpace=wrap;html=1;align=center;" parent="1" vertex="1">
          <mxGeometry x="740" y="860" width="100" height="40" as="geometry" />
        </mxCell>
        <mxCell id="1rP7fkY4lVl0kBXB7WDJ-383" value="Отчет" style="ellipse;whiteSpace=wrap;html=1;align=center;" parent="1" vertex="1">
          <mxGeometry x="610" y="860" width="100" height="40" as="geometry" />
        </mxCell>
        <mxCell id="1rP7fkY4lVl0kBXB7WDJ-384" value="" style="fontSize=12;html=1;endArrow=ERmany;rounded=0;entryX=0.5;entryY=0;entryDx=0;entryDy=0;exitX=0;exitY=1;exitDx=0;exitDy=0;" parent="1" source="1rP7fkY4lVl0kBXB7WDJ-22" target="1rP7fkY4lVl0kBXB7WDJ-383" edge="1">
          <mxGeometry width="100" height="100" relative="1" as="geometry">
            <mxPoint x="690" y="798" as="sourcePoint" />
            <mxPoint x="764" y="840" as="targetPoint" />
          </mxGeometry>
        </mxCell>
        <mxCell id="1rP7fkY4lVl0kBXB7WDJ-385" value="" style="fontSize=12;html=1;endArrow=ERmany;rounded=0;entryX=0.3;entryY=0;entryDx=0;entryDy=0;exitX=0.5;exitY=1;exitDx=0;exitDy=0;entryPerimeter=0;" parent="1" source="1rP7fkY4lVl0kBXB7WDJ-22" target="1rP7fkY4lVl0kBXB7WDJ-382" edge="1">
          <mxGeometry width="100" height="100" relative="1" as="geometry">
            <mxPoint x="720" y="799" as="sourcePoint" />
            <mxPoint x="794" y="841" as="targetPoint" />
          </mxGeometry>
        </mxCell>
        <mxCell id="1rP7fkY4lVl0kBXB7WDJ-386" value="" style="fontSize=12;html=1;endArrow=ERmany;rounded=0;entryX=0.024;entryY=0.299;entryDx=0;entryDy=0;exitX=1;exitY=1;exitDx=0;exitDy=0;entryPerimeter=0;" parent="1" source="1rP7fkY4lVl0kBXB7WDJ-22" target="1rP7fkY4lVl0kBXB7WDJ-381" edge="1">
          <mxGeometry width="100" height="100" relative="1" as="geometry">
            <mxPoint x="800" y="740" as="sourcePoint" />
            <mxPoint x="874" y="782" as="targetPoint" />
          </mxGeometry>
        </mxCell>
        <mxCell id="1rP7fkY4lVl0kBXB7WDJ-404" value="Продажа" style="whiteSpace=wrap;html=1;align=center;" parent="1" vertex="1">
          <mxGeometry x="700" y="90" width="100" height="40" as="geometry" />
        </mxCell>
        <mxCell id="1rP7fkY4lVl0kBXB7WDJ-405" style="edgeStyle=orthogonalEdgeStyle;rounded=0;orthogonalLoop=1;jettySize=auto;html=1;exitX=0.988;exitY=0.487;exitDx=0;exitDy=0;entryX=0;entryY=0.5;entryDx=0;entryDy=0;exitPerimeter=0;" parent="1" source="1rP7fkY4lVl0kBXB7WDJ-3" edge="1">
          <mxGeometry relative="1" as="geometry">
            <mxPoint x="464" y="238" as="sourcePoint" />
            <mxPoint x="700" y="110" as="targetPoint" />
            <Array as="points">
              <mxPoint x="630" y="159" />
              <mxPoint x="630" y="110" />
            </Array>
          </mxGeometry>
        </mxCell>
        <mxCell id="1rP7fkY4lVl0kBXB7WDJ-431" value="Отчеты" style="shape=table;startSize=30;container=1;collapsible=1;childLayout=tableLayout;fixedRows=1;rowLines=0;fontStyle=1;align=center;resizeLast=1;html=1;" parent="1" vertex="1">
          <mxGeometry x="1080" y="1408" width="180" height="150" as="geometry" />
        </mxCell>
        <mxCell id="1rP7fkY4lVl0kBXB7WDJ-432" value="" style="shape=tableRow;horizontal=0;startSize=0;swimlaneHead=0;swimlaneBody=0;fillColor=none;collapsible=0;dropTarget=0;points=[[0,0.5],[1,0.5]];portConstraint=eastwest;top=0;left=0;right=0;bottom=1;" parent="1rP7fkY4lVl0kBXB7WDJ-431" vertex="1">
          <mxGeometry y="30" width="180" height="30" as="geometry" />
        </mxCell>
        <mxCell id="1rP7fkY4lVl0kBXB7WDJ-433" value="PK" style="shape=partialRectangle;connectable=0;fillColor=none;top=0;left=0;bottom=0;right=0;fontStyle=1;overflow=hidden;whiteSpace=wrap;html=1;" parent="1rP7fkY4lVl0kBXB7WDJ-432" vertex="1">
          <mxGeometry width="30" height="30" as="geometry">
            <mxRectangle width="30" height="30" as="alternateBounds" />
          </mxGeometry>
        </mxCell>
        <mxCell id="1rP7fkY4lVl0kBXB7WDJ-434" value="statement_id (char)" style="shape=partialRectangle;connectable=0;fillColor=none;top=0;left=0;bottom=0;right=0;align=left;spacingLeft=6;fontStyle=5;overflow=hidden;whiteSpace=wrap;html=1;" parent="1rP7fkY4lVl0kBXB7WDJ-432" vertex="1">
          <mxGeometry x="30" width="150" height="30" as="geometry">
            <mxRectangle width="150" height="30" as="alternateBounds" />
          </mxGeometry>
        </mxCell>
        <mxCell id="1rP7fkY4lVl0kBXB7WDJ-438" value="" style="shape=tableRow;horizontal=0;startSize=0;swimlaneHead=0;swimlaneBody=0;fillColor=none;collapsible=0;dropTarget=0;points=[[0,0.5],[1,0.5]];portConstraint=eastwest;top=0;left=0;right=0;bottom=0;" parent="1rP7fkY4lVl0kBXB7WDJ-431" vertex="1">
          <mxGeometry y="60" width="180" height="30" as="geometry" />
        </mxCell>
        <mxCell id="1rP7fkY4lVl0kBXB7WDJ-439" value="" style="shape=partialRectangle;connectable=0;fillColor=none;top=0;left=0;bottom=0;right=0;editable=1;overflow=hidden;whiteSpace=wrap;html=1;" parent="1rP7fkY4lVl0kBXB7WDJ-438" vertex="1">
          <mxGeometry width="30" height="30" as="geometry">
            <mxRectangle width="30" height="30" as="alternateBounds" />
          </mxGeometry>
        </mxCell>
        <mxCell id="1rP7fkY4lVl0kBXB7WDJ-440" value="Дата формирования (date)" style="shape=partialRectangle;connectable=0;fillColor=none;top=0;left=0;bottom=0;right=0;align=left;spacingLeft=6;overflow=hidden;whiteSpace=wrap;html=1;" parent="1rP7fkY4lVl0kBXB7WDJ-438" vertex="1">
          <mxGeometry x="30" width="150" height="30" as="geometry">
            <mxRectangle width="150" height="30" as="alternateBounds" />
          </mxGeometry>
        </mxCell>
        <mxCell id="PxecCPgbB7A8g0uYwUUJ-11" value="" style="shape=tableRow;horizontal=0;startSize=0;swimlaneHead=0;swimlaneBody=0;fillColor=none;collapsible=0;dropTarget=0;points=[[0,0.5],[1,0.5]];portConstraint=eastwest;top=0;left=0;right=0;bottom=0;" vertex="1" parent="1rP7fkY4lVl0kBXB7WDJ-431">
          <mxGeometry y="90" width="180" height="30" as="geometry" />
        </mxCell>
        <mxCell id="PxecCPgbB7A8g0uYwUUJ-12" value="" style="shape=partialRectangle;connectable=0;fillColor=none;top=0;left=0;bottom=0;right=0;editable=1;overflow=hidden;whiteSpace=wrap;html=1;" vertex="1" parent="PxecCPgbB7A8g0uYwUUJ-11">
          <mxGeometry width="30" height="30" as="geometry">
            <mxRectangle width="30" height="30" as="alternateBounds" />
          </mxGeometry>
        </mxCell>
        <mxCell id="PxecCPgbB7A8g0uYwUUJ-13" value="Период (varchar)" style="shape=partialRectangle;connectable=0;fillColor=none;top=0;left=0;bottom=0;right=0;align=left;spacingLeft=6;overflow=hidden;whiteSpace=wrap;html=1;" vertex="1" parent="PxecCPgbB7A8g0uYwUUJ-11">
          <mxGeometry x="30" width="150" height="30" as="geometry">
            <mxRectangle width="150" height="30" as="alternateBounds" />
          </mxGeometry>
        </mxCell>
        <mxCell id="1rP7fkY4lVl0kBXB7WDJ-441" value="" style="shape=tableRow;horizontal=0;startSize=0;swimlaneHead=0;swimlaneBody=0;fillColor=none;collapsible=0;dropTarget=0;points=[[0,0.5],[1,0.5]];portConstraint=eastwest;top=0;left=0;right=0;bottom=0;" parent="1rP7fkY4lVl0kBXB7WDJ-431" vertex="1">
          <mxGeometry y="120" width="180" height="30" as="geometry" />
        </mxCell>
        <mxCell id="1rP7fkY4lVl0kBXB7WDJ-442" value="" style="shape=partialRectangle;connectable=0;fillColor=none;top=0;left=0;bottom=0;right=0;editable=1;overflow=hidden;whiteSpace=wrap;html=1;" parent="1rP7fkY4lVl0kBXB7WDJ-441" vertex="1">
          <mxGeometry width="30" height="30" as="geometry">
            <mxRectangle width="30" height="30" as="alternateBounds" />
          </mxGeometry>
        </mxCell>
        <mxCell id="1rP7fkY4lVl0kBXB7WDJ-443" value="Отчет (json)" style="shape=partialRectangle;connectable=0;fillColor=none;top=0;left=0;bottom=0;right=0;align=left;spacingLeft=6;overflow=hidden;whiteSpace=wrap;html=1;" parent="1rP7fkY4lVl0kBXB7WDJ-441" vertex="1">
          <mxGeometry x="30" width="150" height="30" as="geometry">
            <mxRectangle width="150" height="30" as="alternateBounds" />
          </mxGeometry>
        </mxCell>
        <mxCell id="1rP7fkY4lVl0kBXB7WDJ-464" value="Дата продажи" style="ellipse;whiteSpace=wrap;html=1;align=center;" parent="1" vertex="1">
          <mxGeometry x="880" y="-20" width="100" height="40" as="geometry" />
        </mxCell>
        <mxCell id="1rP7fkY4lVl0kBXB7WDJ-465" value="Полная стоимость" style="ellipse;whiteSpace=wrap;html=1;align=center;" parent="1" vertex="1">
          <mxGeometry x="1020" width="100" height="40" as="geometry" />
        </mxCell>
        <mxCell id="1rP7fkY4lVl0kBXB7WDJ-466" value="Сумма скидки" style="ellipse;whiteSpace=wrap;html=1;align=center;" parent="1" vertex="1">
          <mxGeometry x="920" y="60" width="100" height="40" as="geometry" />
        </mxCell>
        <mxCell id="1rP7fkY4lVl0kBXB7WDJ-467" value="Сумма кэшбэка" style="ellipse;whiteSpace=wrap;html=1;align=center;" parent="1" vertex="1">
          <mxGeometry x="1030" y="115" width="100" height="40" as="geometry" />
        </mxCell>
        <mxCell id="1rP7fkY4lVl0kBXB7WDJ-468" value="" style="fontSize=12;html=1;endArrow=ERmany;rounded=0;entryX=0;entryY=1;entryDx=0;entryDy=0;exitX=1;exitY=0;exitDx=0;exitDy=0;" parent="1" source="1rP7fkY4lVl0kBXB7WDJ-404" target="1rP7fkY4lVl0kBXB7WDJ-464" edge="1">
          <mxGeometry width="100" height="100" relative="1" as="geometry">
            <mxPoint x="810" y="90" as="sourcePoint" />
            <mxPoint x="905" y="50" as="targetPoint" />
          </mxGeometry>
        </mxCell>
        <mxCell id="1rP7fkY4lVl0kBXB7WDJ-469" value="" style="fontSize=12;html=1;endArrow=ERmany;rounded=0;entryX=0;entryY=0.5;entryDx=0;entryDy=0;exitX=1.003;exitY=0.435;exitDx=0;exitDy=0;exitPerimeter=0;" parent="1" source="1rP7fkY4lVl0kBXB7WDJ-404" target="1rP7fkY4lVl0kBXB7WDJ-466" edge="1">
          <mxGeometry width="100" height="100" relative="1" as="geometry">
            <mxPoint x="817.5" y="120" as="sourcePoint" />
            <mxPoint x="912.5" y="80" as="targetPoint" />
          </mxGeometry>
        </mxCell>
        <mxCell id="1rP7fkY4lVl0kBXB7WDJ-470" value="" style="fontSize=12;html=1;endArrow=ERmany;rounded=0;entryX=0.02;entryY=0.623;entryDx=0;entryDy=0;entryPerimeter=0;exitX=1;exitY=0.25;exitDx=0;exitDy=0;" parent="1" source="1rP7fkY4lVl0kBXB7WDJ-404" target="1rP7fkY4lVl0kBXB7WDJ-465" edge="1">
          <mxGeometry width="100" height="100" relative="1" as="geometry">
            <mxPoint x="830" as="sourcePoint" />
            <mxPoint x="925" y="-40" as="targetPoint" />
          </mxGeometry>
        </mxCell>
        <mxCell id="1rP7fkY4lVl0kBXB7WDJ-471" value="" style="fontSize=12;html=1;endArrow=ERmany;rounded=0;entryX=0;entryY=0.5;entryDx=0;entryDy=0;exitX=1;exitY=0.75;exitDx=0;exitDy=0;" parent="1" source="1rP7fkY4lVl0kBXB7WDJ-404" target="1rP7fkY4lVl0kBXB7WDJ-467" edge="1">
          <mxGeometry width="100" height="100" relative="1" as="geometry">
            <mxPoint x="850" y="150" as="sourcePoint" />
            <mxPoint x="945" y="110" as="targetPoint" />
          </mxGeometry>
        </mxCell>
        <mxCell id="o4OVlyBVCjczDvB6EY-G-1" value="Контент" style="shape=table;startSize=30;container=1;collapsible=1;childLayout=tableLayout;fixedRows=1;rowLines=0;fontStyle=1;align=center;resizeLast=1;html=1;" parent="1" vertex="1">
          <mxGeometry x="140" y="1838" width="180" height="210" as="geometry" />
        </mxCell>
        <mxCell id="o4OVlyBVCjczDvB6EY-G-2" value="" style="shape=tableRow;horizontal=0;startSize=0;swimlaneHead=0;swimlaneBody=0;fillColor=none;collapsible=0;dropTarget=0;points=[[0,0.5],[1,0.5]];portConstraint=eastwest;top=0;left=0;right=0;bottom=1;" parent="o4OVlyBVCjczDvB6EY-G-1" vertex="1">
          <mxGeometry y="30" width="180" height="30" as="geometry" />
        </mxCell>
        <mxCell id="o4OVlyBVCjczDvB6EY-G-3" value="PK" style="shape=partialRectangle;connectable=0;fillColor=none;top=0;left=0;bottom=0;right=0;fontStyle=1;overflow=hidden;whiteSpace=wrap;html=1;" parent="o4OVlyBVCjczDvB6EY-G-2" vertex="1">
          <mxGeometry width="30" height="30" as="geometry">
            <mxRectangle width="30" height="30" as="alternateBounds" />
          </mxGeometry>
        </mxCell>
        <mxCell id="o4OVlyBVCjczDvB6EY-G-4" value="content_id" style="shape=partialRectangle;connectable=0;fillColor=none;top=0;left=0;bottom=0;right=0;align=left;spacingLeft=6;fontStyle=5;overflow=hidden;whiteSpace=wrap;html=1;" parent="o4OVlyBVCjczDvB6EY-G-2" vertex="1">
          <mxGeometry x="30" width="150" height="30" as="geometry">
            <mxRectangle width="150" height="30" as="alternateBounds" />
          </mxGeometry>
        </mxCell>
        <mxCell id="o4OVlyBVCjczDvB6EY-G-5" value="" style="shape=tableRow;horizontal=0;startSize=0;swimlaneHead=0;swimlaneBody=0;fillColor=none;collapsible=0;dropTarget=0;points=[[0,0.5],[1,0.5]];portConstraint=eastwest;top=0;left=0;right=0;bottom=0;" parent="o4OVlyBVCjczDvB6EY-G-1" vertex="1">
          <mxGeometry y="60" width="180" height="30" as="geometry" />
        </mxCell>
        <mxCell id="o4OVlyBVCjczDvB6EY-G-6" value="" style="shape=partialRectangle;connectable=0;fillColor=none;top=0;left=0;bottom=0;right=0;editable=1;overflow=hidden;whiteSpace=wrap;html=1;" parent="o4OVlyBVCjczDvB6EY-G-5" vertex="1">
          <mxGeometry width="30" height="30" as="geometry">
            <mxRectangle width="30" height="30" as="alternateBounds" />
          </mxGeometry>
        </mxCell>
        <mxCell id="o4OVlyBVCjczDvB6EY-G-7" value="Наименование (String)" style="shape=partialRectangle;connectable=0;fillColor=none;top=0;left=0;bottom=0;right=0;align=left;spacingLeft=6;overflow=hidden;whiteSpace=wrap;html=1;" parent="o4OVlyBVCjczDvB6EY-G-5" vertex="1">
          <mxGeometry x="30" width="150" height="30" as="geometry">
            <mxRectangle width="150" height="30" as="alternateBounds" />
          </mxGeometry>
        </mxCell>
        <mxCell id="o4OVlyBVCjczDvB6EY-G-8" value="" style="shape=tableRow;horizontal=0;startSize=0;swimlaneHead=0;swimlaneBody=0;fillColor=none;collapsible=0;dropTarget=0;points=[[0,0.5],[1,0.5]];portConstraint=eastwest;top=0;left=0;right=0;bottom=0;" parent="o4OVlyBVCjczDvB6EY-G-1" vertex="1">
          <mxGeometry y="90" width="180" height="30" as="geometry" />
        </mxCell>
        <mxCell id="o4OVlyBVCjczDvB6EY-G-9" value="" style="shape=partialRectangle;connectable=0;fillColor=none;top=0;left=0;bottom=0;right=0;editable=1;overflow=hidden;whiteSpace=wrap;html=1;" parent="o4OVlyBVCjczDvB6EY-G-8" vertex="1">
          <mxGeometry width="30" height="30" as="geometry">
            <mxRectangle width="30" height="30" as="alternateBounds" />
          </mxGeometry>
        </mxCell>
        <mxCell id="o4OVlyBVCjczDvB6EY-G-10" value="body (varchar)" style="shape=partialRectangle;connectable=0;fillColor=none;top=0;left=0;bottom=0;right=0;align=left;spacingLeft=6;overflow=hidden;whiteSpace=wrap;html=1;" parent="o4OVlyBVCjczDvB6EY-G-8" vertex="1">
          <mxGeometry x="30" width="150" height="30" as="geometry">
            <mxRectangle width="150" height="30" as="alternateBounds" />
          </mxGeometry>
        </mxCell>
        <mxCell id="o4OVlyBVCjczDvB6EY-G-11" value="" style="shape=tableRow;horizontal=0;startSize=0;swimlaneHead=0;swimlaneBody=0;fillColor=none;collapsible=0;dropTarget=0;points=[[0,0.5],[1,0.5]];portConstraint=eastwest;top=0;left=0;right=0;bottom=0;" parent="o4OVlyBVCjczDvB6EY-G-1" vertex="1">
          <mxGeometry y="120" width="180" height="30" as="geometry" />
        </mxCell>
        <mxCell id="o4OVlyBVCjczDvB6EY-G-12" value="" style="shape=partialRectangle;connectable=0;fillColor=none;top=0;left=0;bottom=0;right=0;editable=1;overflow=hidden;whiteSpace=wrap;html=1;" parent="o4OVlyBVCjczDvB6EY-G-11" vertex="1">
          <mxGeometry width="30" height="30" as="geometry">
            <mxRectangle width="30" height="30" as="alternateBounds" />
          </mxGeometry>
        </mxCell>
        <mxCell id="o4OVlyBVCjczDvB6EY-G-13" value="type (String)" style="shape=partialRectangle;connectable=0;fillColor=none;top=0;left=0;bottom=0;right=0;align=left;spacingLeft=6;overflow=hidden;whiteSpace=wrap;html=1;" parent="o4OVlyBVCjczDvB6EY-G-11" vertex="1">
          <mxGeometry x="30" width="150" height="30" as="geometry">
            <mxRectangle width="150" height="30" as="alternateBounds" />
          </mxGeometry>
        </mxCell>
        <mxCell id="o4OVlyBVCjczDvB6EY-G-14" value="" style="shape=tableRow;horizontal=0;startSize=0;swimlaneHead=0;swimlaneBody=0;fillColor=none;collapsible=0;dropTarget=0;points=[[0,0.5],[1,0.5]];portConstraint=eastwest;top=0;left=0;right=0;bottom=0;" parent="o4OVlyBVCjczDvB6EY-G-1" vertex="1">
          <mxGeometry y="150" width="180" height="30" as="geometry" />
        </mxCell>
        <mxCell id="o4OVlyBVCjczDvB6EY-G-15" value="" style="shape=partialRectangle;connectable=0;fillColor=none;top=0;left=0;bottom=0;right=0;editable=1;overflow=hidden;whiteSpace=wrap;html=1;" parent="o4OVlyBVCjczDvB6EY-G-14" vertex="1">
          <mxGeometry width="30" height="30" as="geometry">
            <mxRectangle width="30" height="30" as="alternateBounds" />
          </mxGeometry>
        </mxCell>
        <mxCell id="o4OVlyBVCjczDvB6EY-G-16" value="Дата публикации (datetime)" style="shape=partialRectangle;connectable=0;fillColor=none;top=0;left=0;bottom=0;right=0;align=left;spacingLeft=6;overflow=hidden;whiteSpace=wrap;html=1;" parent="o4OVlyBVCjczDvB6EY-G-14" vertex="1">
          <mxGeometry x="30" width="150" height="30" as="geometry">
            <mxRectangle width="150" height="30" as="alternateBounds" />
          </mxGeometry>
        </mxCell>
        <mxCell id="o4OVlyBVCjczDvB6EY-G-17" value="" style="shape=tableRow;horizontal=0;startSize=0;swimlaneHead=0;swimlaneBody=0;fillColor=none;collapsible=0;dropTarget=0;points=[[0,0.5],[1,0.5]];portConstraint=eastwest;top=0;left=0;right=0;bottom=0;" parent="o4OVlyBVCjczDvB6EY-G-1" vertex="1">
          <mxGeometry y="180" width="180" height="30" as="geometry" />
        </mxCell>
        <mxCell id="o4OVlyBVCjczDvB6EY-G-18" value="" style="shape=partialRectangle;connectable=0;fillColor=none;top=0;left=0;bottom=0;right=0;editable=1;overflow=hidden;whiteSpace=wrap;html=1;" parent="o4OVlyBVCjczDvB6EY-G-17" vertex="1">
          <mxGeometry width="30" height="30" as="geometry">
            <mxRectangle width="30" height="30" as="alternateBounds" />
          </mxGeometry>
        </mxCell>
        <mxCell id="o4OVlyBVCjczDvB6EY-G-19" value="Дата окончания (datetime)" style="shape=partialRectangle;connectable=0;fillColor=none;top=0;left=0;bottom=0;right=0;align=left;spacingLeft=6;overflow=hidden;whiteSpace=wrap;html=1;" parent="o4OVlyBVCjczDvB6EY-G-17" vertex="1">
          <mxGeometry x="30" width="150" height="30" as="geometry">
            <mxRectangle width="150" height="30" as="alternateBounds" />
          </mxGeometry>
        </mxCell>
        <mxCell id="o4OVlyBVCjczDvB6EY-G-20" value="content_id" style="ellipse;whiteSpace=wrap;html=1;align=center;" parent="1" vertex="1">
          <mxGeometry x="1010" y="330" width="100" height="40" as="geometry" />
        </mxCell>
        <mxCell id="o4OVlyBVCjczDvB6EY-G-21" value="body" style="ellipse;whiteSpace=wrap;html=1;align=center;" parent="1" vertex="1">
          <mxGeometry x="1000" y="374" width="100" height="40" as="geometry" />
        </mxCell>
        <mxCell id="o4OVlyBVCjczDvB6EY-G-22" value="type" style="ellipse;whiteSpace=wrap;html=1;align=center;" parent="1" vertex="1">
          <mxGeometry x="1000" y="420" width="100" height="40" as="geometry" />
        </mxCell>
        <mxCell id="o4OVlyBVCjczDvB6EY-G-23" value="Дата публикации" style="ellipse;whiteSpace=wrap;html=1;align=center;" parent="1" vertex="1">
          <mxGeometry x="800" y="370" width="100" height="40" as="geometry" />
        </mxCell>
        <mxCell id="o4OVlyBVCjczDvB6EY-G-24" value="Дата окончания публикации" style="ellipse;whiteSpace=wrap;html=1;align=center;" parent="1" vertex="1">
          <mxGeometry x="980" y="460" width="100" height="40" as="geometry" />
        </mxCell>
        <mxCell id="o4OVlyBVCjczDvB6EY-G-25" value="" style="fontSize=12;html=1;endArrow=ERmany;rounded=0;entryX=0.112;entryY=0.79;entryDx=0;entryDy=0;exitX=0.992;exitY=-0.001;exitDx=0;exitDy=0;exitPerimeter=0;entryPerimeter=0;" parent="1" source="1rP7fkY4lVl0kBXB7WDJ-20" target="o4OVlyBVCjczDvB6EY-G-23" edge="1">
          <mxGeometry width="100" height="100" relative="1" as="geometry">
            <mxPoint x="810" y="470" as="sourcePoint" />
            <mxPoint x="870" y="410" as="targetPoint" />
          </mxGeometry>
        </mxCell>
        <mxCell id="o4OVlyBVCjczDvB6EY-G-26" value="" style="fontSize=12;html=1;endArrow=ERmany;rounded=0;entryX=0.025;entryY=0.677;entryDx=0;entryDy=0;exitX=0.997;exitY=0.21;exitDx=0;exitDy=0;entryPerimeter=0;exitPerimeter=0;" parent="1" source="1rP7fkY4lVl0kBXB7WDJ-20" target="o4OVlyBVCjczDvB6EY-G-20" edge="1">
          <mxGeometry width="100" height="100" relative="1" as="geometry">
            <mxPoint x="820" y="474" as="sourcePoint" />
            <mxPoint x="880" y="414" as="targetPoint" />
            <Array as="points">
              <mxPoint x="900" y="410" />
            </Array>
          </mxGeometry>
        </mxCell>
        <mxCell id="o4OVlyBVCjczDvB6EY-G-27" value="" style="fontSize=12;html=1;endArrow=ERmany;rounded=0;entryX=-0.004;entryY=0.561;entryDx=0;entryDy=0;exitX=1.001;exitY=0.418;exitDx=0;exitDy=0;exitPerimeter=0;entryPerimeter=0;" parent="1" source="1rP7fkY4lVl0kBXB7WDJ-20" target="o4OVlyBVCjczDvB6EY-G-21" edge="1">
          <mxGeometry width="100" height="100" relative="1" as="geometry">
            <mxPoint x="895" y="455" as="sourcePoint" />
            <mxPoint x="955" y="395" as="targetPoint" />
          </mxGeometry>
        </mxCell>
        <mxCell id="o4OVlyBVCjczDvB6EY-G-28" value="" style="fontSize=12;html=1;endArrow=ERmany;rounded=0;entryX=0.006;entryY=0.404;entryDx=0;entryDy=0;exitX=0.998;exitY=0.593;exitDx=0;exitDy=0;exitPerimeter=0;entryPerimeter=0;" parent="1" source="1rP7fkY4lVl0kBXB7WDJ-20" target="o4OVlyBVCjczDvB6EY-G-22" edge="1">
          <mxGeometry width="100" height="100" relative="1" as="geometry">
            <mxPoint x="850" y="480" as="sourcePoint" />
            <mxPoint x="910" y="420" as="targetPoint" />
          </mxGeometry>
        </mxCell>
        <mxCell id="o4OVlyBVCjczDvB6EY-G-29" value="" style="fontSize=12;html=1;endArrow=ERmany;rounded=0;entryX=0.071;entryY=0.222;entryDx=0;entryDy=0;exitX=1.004;exitY=0.701;exitDx=0;exitDy=0;entryPerimeter=0;exitPerimeter=0;" parent="1" source="1rP7fkY4lVl0kBXB7WDJ-20" target="o4OVlyBVCjczDvB6EY-G-24" edge="1">
          <mxGeometry width="100" height="100" relative="1" as="geometry">
            <mxPoint x="840" y="590" as="sourcePoint" />
            <mxPoint x="900" y="530" as="targetPoint" />
            <Array as="points">
              <mxPoint x="890" y="450" />
            </Array>
          </mxGeometry>
        </mxCell>
      </root>
    </mxGraphModel>
  </diagram>
</mxfile>
